<svg viewBox="0 0 40 40" fill="none" xmlns="http://www.w3.org/2000/svg">
    <g clip-path="url(#clip0_1225_3161)">
        <path d="M0.487198 24.7936L0.00990677 24.7871L0.0856285 25.2559C0.231731 26.1593 0.469154 26.9065 0.791664 27.4774C1.40237 28.5582 2.20972 28.7852 2.77966 28.7854H2.7801C3.11819 28.7854 3.48101 28.7074 3.85829 28.554C4.81554 28.166 5.80956 27.6687 6.89732 27.0332L7.61157 26.6158L6.83939 26.3172C3.26583 24.9345 1.07389 24.8013 0.487186 24.7935L0.487198 24.7936ZM31.324 26.1849L31.8761 26.4916L31.3621 26.8579C31.308 26.8965 25.9313 30.7246 24.974 31.1765C24.8913 31.2157 24.7851 31.2736 24.6619 31.3408C23.9944 31.7048 22.8772 32.3141 21.2986 32.3141H21.298C19.8293 32.3139 18.289 31.7731 16.7199 30.7065C7.62638 24.5237 1.82552 24.3452 1.19378 24.3452C1.15837 24.3452 1.13854 24.3459 1.13498 24.3459L-0.00135422 24.3842L0.858337 23.645C0.932949 23.581 2.77061 22.0523 10.3487 19.9164L10.4267 19.8943L10.5071 19.9041C11.8381 20.0674 23.7144 21.6229 30.7936 25.8948C30.9016 25.9612 31.0043 26.0149 31.1129 26.0717C31.1809 26.1073 31.2513 26.1441 31.3241 26.1846L31.324 26.1849ZM10.4491 19.445L10.0023 19.394L10.1041 18.9581C10.1284 18.8539 10.7197 16.3734 12.3534 13.6796C13.3173 12.0903 14.4452 10.7604 15.706 9.72701C17.2924 8.42652 19.0916 7.59602 21.0537 7.25791C22.0495 7.08664 23.0767 7 24.1075 7C26.6804 7 29.2437 7.53654 31.5208 8.5517L31.6742 8.62008L31.7328 8.77687C31.8896 9.19648 32.1807 10.5212 31.4996 13.748C30.7807 17.159 29.4824 21.9624 28.9577 23.869L28.8328 24.3231L28.4027 24.1263C20.844 20.6638 10.5525 19.4567 10.4493 19.4449L10.4491 19.445ZM39.5372 20.957C39.4294 22.7767 38.9557 24.6932 38.129 26.6529L38.108 26.7025L38.0744 26.7449C38.0218 26.8114 37.5225 27.3961 36.2263 27.3961H36.226C34.8701 27.3961 33.1396 26.766 31.0821 25.5239C30.5961 25.2324 30.093 24.9533 29.5872 24.6947L29.2974 24.5466L29.3836 24.2341C29.9273 22.2639 31.2707 17.3055 32.0034 13.8286C32.3607 12.1315 32.5028 10.7406 32.426 9.69446L32.3705 8.94076L33.0275 9.32005C35.8741 10.9635 37.8986 13.3054 38.8831 16.0925C39.4187 17.6101 39.639 19.2466 39.5375 20.9571L39.5372 20.957Z" fill="white" fill-opacity="0.2"/>
    </g>
    <defs>
        <clipPath id="clip0_1225_3161">
            <rect width="40" height="40" fill="white"/>
        </clipPath>
    </defs>
</svg>