<svg viewBox="0 0 40 40" fill="none" xmlns="http://www.w3.org/2000/svg">
    <g clip-path="url(#clip0_1225_3229)">
        <path d="M14.4572 5.64842C14.5312 6.59744 15.3708 7.38446 16.3227 7.38446H23.7071C24.659 7.38446 25.4985 6.59744 25.5726 5.64842L25.8799 1.72023C25.9541 0.771214 25.2359 0 24.284 0H15.7458C14.7938 0 14.0757 0.771214 14.1498 1.72012L14.4572 5.64842Z" fill="white" fill-opacity="0.2"/>
        <path d="M29.6838 29.7613L25.7781 11.1331C25.583 10.2015 24.6445 9.46094 23.6925 9.46094H16.3081C15.3562 9.46094 14.4177 10.2015 14.2226 11.1331L10.3169 29.7722C10.1218 30.7039 10.5354 31.9879 11.2361 32.6322L18.7264 39.5171C19.4271 40.1615 20.5737 40.1601 21.2744 39.5157L28.7646 32.6275C29.4652 31.9832 29.8789 30.693 29.6838 29.7613Z" fill="white" fill-opacity="0.2"/>
    </g>
    <defs>
        <clipPath id="clip0_1225_3229">
            <rect width="40" height="40" fill="white"/>
        </clipPath>
    </defs>
</svg>
