<svg viewBox="0 0 40 40" fill="none" xmlns="http://www.w3.org/2000/svg">
    <path d="M28.0795 16.6349C30.8477 17.1388 33.3195 17.8988 35.3596 18.883C38.0156 17.4828 39.5195 15.7629 39.5195 14.035C39.5195 11.139 35.4234 8.45089 29.3036 7.0748C27.4077 6.65069 25.5997 8.08288 25.5997 10.0349V13.651C25.5916 15.1148 26.6396 16.3709 28.0796 16.6349H28.0795Z" fill="white" fill-opacity="0.2"/>
    <path d="M4.64096 18.8829C6.68092 17.8988 9.15302 17.139 11.9211 16.6348C13.3611 16.3708 14.4091 15.1147 14.4091 13.6507V10.0345C14.4091 8.09058 12.6011 6.65056 10.7051 7.07443C4.59317 8.45059 0.489258 11.1384 0.489258 14.0346C0.488979 15.7548 1.98506 17.4827 4.6411 18.8829H4.64096Z" fill="white" fill-opacity="0.2"/>
    <path d="M39.8801 16.6592C38.8961 18.1631 37.0721 19.5152 34.4961 20.6112C30.6482 22.2513 25.5524 23.1553 20.1359 23.1553H20.0001H19.8642C14.4481 23.1553 9.35189 22.2513 5.50398 20.6112C2.92809 19.5152 1.10378 18.1553 0.11998 16.6592C0.0399008 17.5713 0 18.5473 0 19.5551C0 21.5392 0.159881 23.4271 0.45592 24.8834C0.863847 26.7475 1.02401 28.4275 5.97607 30.5553C9.67198 32.1393 14.6083 33.0034 19.8641 33.0034H20H20.1359C25.3921 33.0034 30.3282 32.1393 34.0239 30.5553C38.9679 28.4272 39.1281 26.7553 39.5441 24.8834C39.8401 23.4274 40 21.5393 40 19.5551C39.9994 18.5471 39.9595 17.571 39.8795 16.6592H39.8801ZM22.1356 29.8515L20.3837 30.8755C20.1518 31.0114 19.8717 31.0114 19.6398 30.8755L17.8797 29.8674C17.6478 29.7394 17.5036 29.4913 17.5036 29.2274L17.4955 27.2033C17.4955 26.9394 17.6314 26.6913 17.8635 26.5633L19.6155 25.5392C19.8473 25.4034 20.1275 25.4034 20.3593 25.5392L22.1194 26.5473C22.3513 26.6754 22.4955 26.9235 22.4955 27.1874L22.5036 29.2114C22.5036 29.4754 22.3597 29.7234 22.1356 29.8515Z" fill="white" fill-opacity="0.2"/>
</svg>
