<svg viewBox="0 0 40 40" fill="none" xmlns="http://www.w3.org/2000/svg">
    <path d="M24.4144 3.57141H22.8573C22.4629 3.57141 22.143 3.25164 22.143 2.85711C22.143 2.46266 22.4628 2.14281 22.8573 2.14281H24.1287L23.7001 0H16.3001L15.8715 2.14289H20.0001C20.3946 2.14289 20.7144 2.46266 20.7144 2.85719C20.7144 3.25164 20.3946 3.57148 20.0001 3.57148H15.5858L15.1572 5.71437H24.8429L24.4144 3.57141Z" fill="white" fill-opacity="0.2"/>
    <path d="M20 30C25.5228 30 30 25.5228 30 20C30 14.4772 25.5228 10 20 10C14.4772 10 10 14.4772 10 20C10.0059 25.5204 14.4796 29.9941 20 30ZM20.7143 27.8571C20.7143 28.2516 20.3945 28.5714 20 28.5714C19.6055 28.5714 19.2857 28.2516 19.2857 27.8571V26.4285C19.2857 26.0341 19.6055 25.7142 20 25.7142C20.3945 25.7142 20.7143 26.034 20.7143 26.4285V27.8571ZM27.1641 24.5503C26.9419 24.678 26.6683 24.6768 26.4471 24.5471L25.21 23.8328C24.8684 23.6355 24.7513 23.1988 24.9486 22.8571C25.1459 22.5155 25.5827 22.3984 25.9243 22.5957L27.1614 23.31C27.3842 23.4367 27.5221 23.673 27.5227 23.9294C27.5232 24.1857 27.3864 24.4227 27.1641 24.5503ZM28.5714 20C28.5714 20.3945 28.2516 20.7143 27.8571 20.7143H26.4285C26.0341 20.7143 25.7142 20.3945 25.7142 20C25.7142 19.6055 26.034 19.2857 26.4285 19.2857H27.8571C28.2516 19.2857 28.5714 19.6055 28.5714 20ZM25.21 16.1671L26.4471 15.4528C26.6682 15.3232 26.9419 15.322 27.1641 15.4496C27.3864 15.5773 27.5232 15.8142 27.5227 16.0705C27.5221 16.3269 27.3842 16.5632 27.1614 16.6899L25.9243 17.4042C25.7032 17.5338 25.4295 17.5351 25.2073 17.4074C24.985 17.2798 24.8482 17.0428 24.8487 16.7865C24.8493 16.5302 24.9872 16.2938 25.21 16.1671ZM22.5957 14.0757L23.31 12.8386C23.4367 12.6158 23.673 12.4779 23.9294 12.4773C24.1857 12.4768 24.4227 12.6136 24.5503 12.8359C24.678 13.0581 24.6768 13.3317 24.5471 13.5529L23.8328 14.79C23.6342 15.1287 23.1995 15.2437 22.8595 15.0473C22.5195 14.851 22.4016 14.417 22.5957 14.0757ZM22.8571 24.9486C23.1988 24.7513 23.6355 24.8684 23.8328 25.21L24.5471 26.4471C24.6767 26.6682 24.678 26.9419 24.5503 27.1641C24.4227 27.3864 24.1857 27.5232 23.9294 27.5227C23.673 27.5221 23.4367 27.3842 23.31 27.1614L22.5957 25.9243C22.3985 25.5827 22.5155 25.1459 22.8571 24.9486ZM19.2857 12.1429C19.2857 11.7484 19.6055 11.4286 20 11.4286C20.3945 11.4286 20.7143 11.7484 20.7143 12.1429V13.5715C20.7143 13.9659 20.3945 14.2858 20 14.2858C19.6055 14.2858 19.2857 13.966 19.2857 13.5715V12.1429ZM19.9329 19.0571L20.9236 18.0664C21.2038 17.7957 21.6494 17.7996 21.9249 18.0751C22.2005 18.3506 22.2043 18.7961 21.9336 19.0764L20.505 20.505C20.2537 20.7563 19.8558 20.7846 19.5714 20.5714L16.7143 18.4285C16.3987 18.1918 16.3348 17.7441 16.5714 17.4285C16.8081 17.1129 17.2558 17.049 17.5714 17.2856L19.9329 19.0571ZM15.3812 13.0105C15.4302 12.8273 15.5501 12.6712 15.7143 12.5765C15.8784 12.4818 16.0734 12.4563 16.2565 12.5055C16.4395 12.5546 16.5955 12.6745 16.69 12.8387L17.4043 14.0758C17.5339 14.2969 17.5352 14.5705 17.4075 14.7928C17.2798 15.0151 17.0429 15.1519 16.7866 15.1513C16.5302 15.1508 16.2939 15.0129 16.1672 14.7901L15.4529 13.553C15.3579 13.3887 15.3321 13.1936 15.3812 13.0105ZM15.4529 26.4471L16.1672 25.21C16.3658 24.8712 16.8005 24.7563 17.1405 24.9527C17.4805 25.149 17.5984 25.583 17.4043 25.9243L16.69 27.1614C16.5633 27.3842 16.327 27.5221 16.0706 27.5227C15.8143 27.5232 15.5773 27.3864 15.4497 27.1641C15.322 26.9419 15.3232 26.6683 15.4529 26.4471ZM12.5764 15.7143C12.6712 15.5501 12.8273 15.4302 13.0104 15.3812C13.1935 15.3321 13.3887 15.3579 13.5528 15.4529L14.7899 16.1672C15.0127 16.2939 15.1506 16.5302 15.1512 16.7866C15.1517 17.0429 15.0149 17.2798 14.7927 17.4075C14.5704 17.5352 14.2968 17.534 14.0756 17.4043L12.8385 16.69C12.6744 16.5954 12.5545 16.4395 12.5053 16.2565C12.4562 16.0734 12.4818 15.8784 12.5764 15.7143ZM11.4286 20C11.4286 19.6055 11.7484 19.2857 12.1429 19.2857H13.5715C13.9659 19.2857 14.2858 19.6055 14.2858 20C14.2858 20.3945 13.966 20.7143 13.5715 20.7143H12.1429C11.7484 20.7143 11.4286 20.3945 11.4286 20ZM12.5764 24.2857C12.4817 24.1216 12.4562 23.9266 12.5054 23.7435C12.5545 23.5605 12.6744 23.4045 12.8386 23.31L14.0757 22.5957C14.2968 22.4661 14.5705 22.4648 14.7927 22.5925C15.015 22.7202 15.1518 22.9571 15.1513 23.2134C15.1507 23.4698 15.0128 23.7061 14.79 23.8328L13.5529 24.5471C13.3888 24.642 13.1937 24.6678 13.0105 24.6188C12.8273 24.5698 12.6712 24.45 12.5764 24.2857Z" fill="white" fill-opacity="0.2"/>
    <path d="M27.388 11.2955L26.5573 7.14258H13.443L12.6123 11.2955C16.8678 7.66297 23.1325 7.66297 27.388 11.2955Z" fill="white" fill-opacity="0.2"/>
    <path d="M12.6123 28.7041L13.443 32.857H26.5573L27.388 28.7041C23.1325 32.3366 16.8679 32.3366 12.6123 28.7041Z" fill="white" fill-opacity="0.2"/>
    <path d="M15.5858 36.4281H17.1429C17.5374 36.4281 17.8572 36.7479 17.8572 37.1424C17.8572 37.537 17.5375 37.8567 17.1429 37.8567H15.8715L16.3001 39.9995H23.7001L24.1287 37.8566H20.0001C19.6057 37.8566 19.2858 37.5369 19.2858 37.1423C19.2858 36.7478 19.6056 36.428 20.0001 36.428H24.4144L24.843 34.2852H15.1572L15.5858 36.4281Z" fill="white" fill-opacity="0.2"/>
</svg>
