<svg viewBox="0 0 40 40" fill="none" xmlns="http://www.w3.org/2000/svg">
    <path d="M19.3333 25.9502H4V29.2835H19.3333V25.9502Z" fill="white" fill-opacity="0.2"/>
    <path d="M36.0003 25.9502H20.667V29.2835H36.0003V25.9502Z" fill="white" fill-opacity="0.2"/>
    <path d="M36 30.6172H4V34.6172H36V30.6172Z" fill="white" fill-opacity="0.2"/>
    <path d="M19.3333 15.2266C19.2246 15.21 19.116 15.1907 19.0093 15.166C18.9506 15.152 18.892 15.1359 18.834 15.12C18.7313 15.0913 18.6293 15.0593 18.5287 15.0239C18.4727 15.0039 18.4167 14.9839 18.3613 14.9619C18.2533 14.9193 18.1466 14.8706 18.0413 14.8199C17.9979 14.7985 17.9533 14.7799 17.9099 14.7572C17.7626 14.6812 17.618 14.5985 17.476 14.5072C17.4573 14.4952 17.44 14.4818 17.4219 14.4699C17.298 14.3885 17.176 14.3025 17.0566 14.2105C17.0106 14.1759 16.966 14.1378 16.9206 14.1019C16.8293 14.0278 16.7386 13.9519 16.6493 13.8726C16.6006 13.8292 16.5526 13.7846 16.5046 13.7399C16.4186 13.6592 16.334 13.5759 16.2506 13.4906C16.206 13.4446 16.1606 13.3993 16.1166 13.3519C16.0233 13.2526 15.932 13.1492 15.842 13.0433C15.8107 13.0073 15.7787 12.9726 15.748 12.936C15.628 12.792 15.5101 12.6426 15.3946 12.4886C15.3726 12.4593 15.3513 12.4279 15.3286 12.3973C15.2367 12.272 15.1453 12.1439 15.056 12.0126C15.0193 11.958 14.9833 11.902 14.9466 11.8466C14.8733 11.736 14.8006 11.6233 14.7299 11.5087C14.692 11.448 14.6546 11.3867 14.6179 11.3253C14.5472 11.208 14.4786 11.09 14.4106 10.97C14.378 10.912 14.3446 10.8547 14.3126 10.796C14.2326 10.652 14.1553 10.506 14.0786 10.358C14.0613 10.324 14.0426 10.29 14.0246 10.2553C13.9306 10.0706 13.8393 9.88398 13.75 9.69526C13.7293 9.65126 13.7099 9.60662 13.6893 9.56262C13.6219 9.41798 13.5559 9.27263 13.492 9.12593C13.4633 9.06191 13.436 8.99725 13.4087 8.9326C13.3533 8.80329 13.2986 8.67264 13.2454 8.5419C13.218 8.47526 13.1907 8.40854 13.164 8.34127C13.1106 8.20664 13.0587 8.07129 13.0074 7.93595C12.9848 7.87662 12.9614 7.81729 12.9394 7.75732C12.8754 7.586 12.8141 7.41396 12.7541 7.24263C12.7468 7.22127 12.7388 7.19927 12.7307 7.17798C12.6628 6.98195 12.5981 6.78601 12.5347 6.59133C12.52 6.54534 12.506 6.49999 12.4914 6.454C12.4446 6.3073 12.3994 6.16068 12.3554 6.01533C12.3367 5.95401 12.3194 5.89333 12.3014 5.83264C12.262 5.7 12.224 5.56863 12.1874 5.43734C12.1707 5.37737 12.154 5.31804 12.1381 5.2587C12.1007 5.12138 12.064 4.9854 12.0294 4.85069C12.0168 4.80271 12.0041 4.75402 11.9921 4.70669C11.8994 4.34204 11.8167 3.98867 11.7441 3.64999C11.7348 3.60599 11.7261 3.56333 11.7168 3.51997C11.6908 3.39598 11.6661 3.27327 11.6428 3.15397C11.6327 3.10329 11.6227 3.05262 11.6134 3.00266C11.6028 2.9473 11.5941 2.894 11.5841 2.83936L11.2306 0.311354C11.2139 0.284666 11.1899 0.266716 11.1706 0.243364C11.1513 0.220728 11.1347 0.198012 11.1127 0.177996C11.07 0.139315 11.022 0.109292 10.9714 0.0826835C10.9513 0.0726757 10.9347 0.0586966 10.914 0.050039C10.84 0.0207305 10.762 0.00540104 10.6814 0.00333593C10.676 0.00333593 10.6721 0 10.6667 0H9.31999C8.79069 0 8.29197 0.206669 7.91667 0.581326C7.54003 0.956619 7.33336 1.45534 7.33336 1.98536C7.33527 7.10864 6.12329 13.628 4.57264 16.8266C4.25866 17.4759 4.01196 18.5419 4.00195 19.2839H19.3333V15.2266Z" fill="white" fill-opacity="0.2"/>
    <path d="M28.4162 2.83936C28.4061 2.894 28.3975 2.94738 28.3868 3.00266C28.3778 3.05143 28.368 3.10073 28.3583 3.15012L28.3575 3.15397C28.3342 3.27327 28.3096 3.39598 28.2835 3.51997C28.2741 3.56333 28.2655 3.60599 28.2562 3.64999C28.1835 3.98867 28.1008 4.34196 28.0082 4.70669C27.9962 4.75402 27.9835 4.80271 27.9709 4.85069C27.9363 4.98532 27.8996 5.12138 27.8622 5.2587C27.8463 5.31804 27.8296 5.37737 27.8129 5.43734C27.7762 5.56871 27.7382 5.7 27.6989 5.83264C27.6809 5.89333 27.6636 5.95401 27.6449 6.01533C27.6009 6.16068 27.5556 6.3073 27.5089 6.454C27.4942 6.49999 27.4803 6.54534 27.4656 6.59133C27.4023 6.78601 27.3375 6.98203 27.2695 7.17798C27.2615 7.19934 27.2536 7.22135 27.2462 7.24263C27.1862 7.41396 27.1248 7.586 27.0609 7.75732C27.0389 7.81729 27.0155 7.87662 26.9929 7.93595C26.9416 8.07129 26.8896 8.20664 26.8363 8.34127C26.8096 8.40862 26.7823 8.47526 26.7549 8.5419C26.7016 8.67256 26.6469 8.80321 26.5916 8.9326C26.5643 8.99725 26.537 9.06191 26.5083 9.12593C26.4443 9.27263 26.3783 9.4179 26.311 9.56262C26.2904 9.60662 26.271 9.65126 26.2503 9.69526C26.161 9.8839 26.0696 10.0706 25.9757 10.2553C25.9576 10.2899 25.939 10.324 25.9217 10.358C25.845 10.506 25.7677 10.652 25.6877 10.796C25.6557 10.8547 25.6223 10.9119 25.5897 10.97C25.5217 11.09 25.453 11.2079 25.3824 11.3253C25.3457 11.3867 25.3083 11.448 25.2704 11.5087C25.1997 11.6234 25.127 11.736 25.0537 11.8466C25.017 11.902 24.981 11.958 24.9443 12.0126C24.855 12.144 24.7636 12.272 24.6716 12.3973C24.649 12.4279 24.6276 12.4593 24.6056 12.4886C24.4903 12.6426 24.3723 12.792 24.2523 12.936C24.2217 12.9727 24.1897 13.0073 24.1584 13.0433C24.0684 13.1493 23.9771 13.2526 23.8837 13.3519C23.8397 13.3993 23.7944 13.4446 23.7497 13.4906C23.6664 13.5759 23.5817 13.6593 23.4957 13.7399C23.4478 13.7846 23.3997 13.8293 23.3511 13.8726C23.2617 13.9519 23.1711 14.0279 23.0798 14.1019C23.0344 14.1378 22.9898 14.1759 22.9438 14.2105C22.8245 14.3025 22.7025 14.3885 22.5784 14.4699C22.5604 14.4818 22.5431 14.4952 22.5244 14.5072C22.3824 14.5985 22.2378 14.6812 22.0904 14.7572C22.0471 14.7799 22.0024 14.7985 21.9591 14.8199C21.8537 14.8706 21.7471 14.9193 21.639 14.9619C21.5837 14.9839 21.5277 15.0039 21.4717 15.0239C21.3711 15.0593 21.269 15.0913 21.1664 15.12C21.1084 15.1359 21.0497 15.152 20.9911 15.166C20.8844 15.1907 20.7757 15.21 20.6671 15.2266V19.2839H35.9979C35.9879 18.5419 35.7412 17.4759 35.4273 16.8259C33.8766 13.6279 32.6646 7.10856 32.6666 1.98528C32.6666 1.45526 32.4599 0.956619 32.0833 0.581247C31.7079 0.206669 31.2093 0 30.6799 0H29.3332C29.3285 0 29.3246 0.00270052 29.3192 0.00270052C29.2385 0.00468619 29.1599 0.0200156 29.0859 0.050039C29.0645 0.0586966 29.0479 0.0726757 29.0285 0.0833984C28.9779 0.109371 28.9305 0.139394 28.8879 0.178075C28.8652 0.198091 28.8486 0.220728 28.8292 0.243444C28.8099 0.266795 28.7858 0.285461 28.7692 0.311433L28.4162 2.83936Z" fill="white" fill-opacity="0.2"/>
    <path d="M20.667 40.0004H34.0003C35.103 40.0004 36.0003 39.1038 36.0003 38.0005V35.9512H20.667V40.0004Z" fill="white" fill-opacity="0.2"/>
    <path d="M36 20.6172H4V24.6172H36V20.6172Z" fill="white" fill-opacity="0.2"/>
    <path d="M4 37.9996C4 39.1029 4.89737 39.9995 5.99997 39.9995H19.3333V35.9502H4V37.9996Z" fill="white" fill-opacity="0.2"/>
</svg>
