<svg viewBox="0 0 40 40" fill="none" xmlns="http://www.w3.org/2000/svg">
    <path d="M35.4789 15.3498L35.4598 15.2775C35.4447 15.1526 35.4152 15.0315 35.3734 14.9082L35.3317 14.7846L35.3016 14.7209C35.2351 14.5778 35.1591 14.4507 35.0708 14.3358L35.0476 14.2927L21.325 0.570011C21.1655 0.410148 20.9785 0.28244 20.7444 0.173888L20.5806 0.113683C20.4595 0.0722919 20.3359 0.0427594 20.206 0.0253136L20.1116 0H10.9702C7.41118 0 4.51562 2.8935 4.51562 6.45188V33.5488C4.51562 37.1058 7.41129 40 10.9702 40H29.0332C32.5909 40 35.4851 37.1058 35.4851 33.5488V15.532L35.4789 15.3498ZM28.0665 31.5604H10.9761C10.1431 31.5604 9.46762 30.8853 9.46762 30.0534C9.46762 29.22 10.1438 28.5456 10.9761 28.5456H28.0665C28.9003 28.5456 29.5749 29.22 29.5749 30.0534C29.5748 30.8853 28.9003 31.5604 28.0665 31.5604ZM28.0665 27.5398H10.9761C10.1431 27.5398 9.46762 26.8647 9.46762 26.0314C9.46762 25.1981 10.1438 24.5244 10.9761 24.5244H28.0665C28.9003 24.5244 29.5749 25.1981 29.5749 26.0314C29.5749 26.8647 28.9003 27.5398 28.0665 27.5398ZM28.0665 23.5179H10.9761C10.1431 23.5179 9.46762 22.8429 9.46762 22.0101C9.46762 21.1769 10.1438 20.5025 10.9761 20.5025H28.0665C28.9003 20.5025 29.5749 21.1777 29.5749 22.0101C29.5748 22.8429 28.9003 23.5179 28.0665 23.5179Z" fill="white" fill-opacity="0.2"/>
</svg>
