<svg viewBox="0 0 40 40" fill="none" xmlns="http://www.w3.org/2000/svg">
    <path d="M37.05 27.6924H35.8462L34.6616 12.9886C34.6454 12.8255 34.6154 12.6678 34.59 12.5078L34.5462 12.6648C33.2008 16.564 30.4177 19.6532 26.9231 21.424V24.6155H27.6923L28.4616 25.3848V28.4617L27.6923 29.2309H24.6154L23.8462 28.4617V25.3848L24.6154 24.6155H25.3846V22.0886C23.693 22.7248 21.8784 23.077 20 23.077C18.1162 23.077 16.3016 22.734 14.6154 22.1078V24.6155H15.3846L16.1538 25.3847V28.4616L15.3846 29.2309H12.3077L11.5384 28.4616V25.3847L12.3077 24.6155H13.0769V21.4393C9.76305 19.7731 7.09844 16.9231 5.67531 13.277L5.60609 13.0777L4.21461 27.6924H2.95C1.32305 27.6924 0 29.0162 0 30.6424V33.2378C0 36.1178 2.34305 38.4616 5.22383 38.4616H7.93149C8.93227 38.9563 10.0391 39.2309 11.1753 39.2309H29.2245C30.3822 39.2309 31.4769 38.9609 32.4461 38.4616H34.7761C37.6569 38.4616 39.9999 36.1178 39.9999 33.2378V30.6424C40 29.0162 38.677 27.6924 37.05 27.6924ZM5.22383 36.9231C3.19148 36.9231 1.53844 35.2701 1.53844 33.2377V30.6423C1.53844 29.8639 2.17148 29.2308 2.95 29.2308H4.06766L3.87922 31.207C3.85461 31.467 3.84461 31.7262 3.84766 31.9846C3.85 32.1608 3.86609 32.3346 3.8807 32.5084C3.88766 32.5877 3.88766 32.6677 3.89688 32.7469C3.9207 32.9523 3.95844 33.1545 3.99922 33.3561C4.00844 33.403 4.01383 33.4499 4.02383 33.4969C4.06844 33.6945 4.12539 33.8869 4.18539 34.0792C4.20156 34.1308 4.21305 34.183 4.23 34.233C4.28695 34.4038 4.35695 34.57 4.42617 34.7354C4.45695 34.8077 4.48234 34.8808 4.51461 34.9523C4.57695 35.087 4.64922 35.217 4.71922 35.3477C4.77156 35.447 4.82078 35.547 4.87766 35.6431C4.93609 35.7408 5.00149 35.8331 5.06461 35.9277C5.14617 36.0523 5.22617 36.1777 5.31617 36.297C5.36313 36.36 5.41617 36.4185 5.46539 36.48C5.56 36.5984 5.65078 36.7192 5.75305 36.8323C5.77609 36.857 5.80227 36.8785 5.82539 36.9031C5.83078 36.9093 5.83617 36.917 5.84234 36.9231H5.22383ZM27.6923 35.3847C27.6923 35.8101 27.3477 36.1539 26.9231 36.1539H13.077C12.6523 36.1539 12.3077 35.8101 12.3077 35.3847V32.3077C12.3077 31.8823 12.6523 31.5385 13.077 31.5385H26.9231C27.3477 31.5385 27.6923 31.8823 27.6923 32.3077V35.3847ZM38.4616 33.2378C38.4616 35.2701 36.8085 36.9232 34.7762 36.9232H34.4485C34.877 36.4294 35.2247 35.8648 35.4977 35.2532C35.5023 35.244 35.507 35.234 35.5108 35.2248C35.5784 35.0717 35.6384 34.9148 35.6954 34.7563C35.7377 34.6433 35.7792 34.5309 35.8154 34.4155C35.8338 34.3571 35.8492 34.2963 35.8654 34.2363C36.1154 33.3694 36.22 32.4417 36.1516 31.4771L35.97 29.2309H37.05C37.8284 29.2309 38.4616 29.864 38.4616 30.6425V33.2378Z" fill="white" fill-opacity="0.2"/>
    <path d="M13.077 19.6988V12.308H12.3077C11.8831 12.308 11.5385 11.9642 11.5385 11.5388C11.5385 11.1134 11.8831 10.7696 12.3077 10.7696H15.3847C15.8093 10.7696 16.1539 11.1134 16.1539 11.5388C16.1539 11.9642 15.8093 12.308 15.3847 12.308H14.6155V20.4534C16.2816 21.1534 18.1016 21.5388 20.0001 21.5388C21.8909 21.5388 23.7139 21.1488 25.3847 20.4404V12.308H24.6155C24.1909 12.308 23.8463 11.9642 23.8463 11.5388C23.8463 11.1134 24.1909 10.7696 24.6155 10.7696H27.6924C28.117 10.7696 28.4616 11.1134 28.4616 11.5388C28.4616 11.9642 28.117 12.308 27.6924 12.308H26.9232V19.6688C29.7386 18.0366 31.9655 15.4296 33.0778 12.2065L33.7263 9.89031C32.3032 7.18875 29.4785 5.38492 26.2439 5.38492H26.0923C25.717 2.78031 23.4762 0.769531 20.7693 0.769531H19.2309C16.5216 0.769531 14.2801 2.78258 13.907 5.38953C10.517 5.43875 7.60859 7.4557 6.30469 10.4049L7.11852 12.7449C8.29305 15.7542 10.4177 18.1673 13.077 19.6988ZM19.2308 2.30805H20.7692C22.6269 2.30805 24.1808 3.63187 24.5377 5.385H15.4623C15.8192 3.63195 17.373 2.30805 19.2308 2.30805Z" fill="white" fill-opacity="0.2"/>
    <path d="M26.1534 33.0771H13.8457V34.6156H26.1534V33.0771Z" fill="white" fill-opacity="0.2"/>
    <path d="M26.9232 26.1543H25.3848V27.6927H26.9232V26.1543Z" fill="white" fill-opacity="0.2"/>
    <path d="M14.6156 26.1543H13.0771V27.6927H14.6156V26.1543Z" fill="white" fill-opacity="0.2"/>
</svg>
