<svg viewBox="0 0 40 40" fill="none" xmlns="http://www.w3.org/2000/svg">
    <g clip-path="url(#clip0_1225_3166)">
        <path d="M19.0827 3.76465H16.3168C15.9384 3.76465 15.6318 4.07137 15.6318 4.44962V6.68377H12.9485C11.5768 6.68377 10.3273 7.47232 9.73699 8.71041L0.682158 27.7015C0.51375 28.0547 0.658274 28.478 1.00776 28.6543L1.1401 28.7211L0.0833448 30.7243C-0.102246 31.076 0.0325297 31.5116 0.384214 31.6971L1.91269 32.5036C2.26437 32.6892 2.70002 32.5544 2.88549 32.2027L3.96918 30.1485L4.13052 30.2299C4.30185 30.3163 4.50048 30.3308 4.68254 30.2701C4.86459 30.2095 5.01484 30.0787 5.10002 29.9068L11.5465 16.8989L11.5427 19.8049C10.8074 20.2245 10.3107 21.0144 10.3107 21.9215C10.3107 22.7233 10.6997 23.4325 11.2974 23.8767C10.2035 24.1425 9.39018 25.1259 9.39018 26.3016C9.39018 27.4023 10.1029 28.3347 11.0913 28.6676C10.6122 29.1126 10.3107 29.7461 10.3107 30.4516C10.3107 31.3519 10.8002 32.1362 11.5262 32.5582L11.5225 35.5141C11.5222 35.7052 11.598 35.8886 11.733 36.0238C11.8681 36.1591 12.0513 36.235 12.2425 36.235H19.0826V3.76465H19.0827Z" fill="white" fill-opacity="0.2"/>
        <path d="M39.9163 30.7242L38.8588 28.7197L38.9886 28.6542C39.3381 28.4778 39.4828 28.0547 39.3142 27.7014L30.2595 8.71053C29.6692 7.47244 28.4197 6.6839 27.0481 6.6839H24.3646V4.44962C24.3646 4.07137 24.0579 3.76465 23.6796 3.76465H20.9102V36.2348H27.7651C27.9563 36.2348 28.1395 36.1587 28.2747 36.0235C28.4097 35.8882 28.4855 35.7047 28.4851 35.5136L28.4805 32.5515C29.2007 32.128 29.6854 31.3471 29.6854 30.4513C29.6854 29.7459 29.3838 29.1124 28.9048 28.6673C29.8932 28.3344 30.606 27.4021 30.606 26.3013C30.606 25.1256 29.7927 24.1422 28.6988 23.8765C29.2965 23.4323 29.6854 22.7231 29.6854 21.9212C29.6854 21.017 29.1919 20.2297 28.4606 19.8091L28.4561 16.9116L34.8961 29.9066C34.9813 30.0786 35.1316 30.2093 35.3136 30.27C35.4957 30.3307 35.6943 30.3162 35.8656 30.2298L36.0294 30.1472L37.1138 32.2027C37.2994 32.5545 37.7349 32.6892 38.0866 32.5036L39.6151 31.6971C39.9672 31.5115 40.1018 31.0759 39.9163 30.7242Z" fill="white" fill-opacity="0.2"/>
    </g>
    <defs>
        <clipPath id="clip0_1225_3166">
            <rect width="40" height="40" fill="white"/>
        </clipPath>
    </defs>
</svg>
