<svg viewBox="0 0 40 40" fill="none" xmlns="http://www.w3.org/2000/svg">
    <g clip-path="url(#clip0_1225_3171)">
        <path d="M0.0809019 18.0423C-0.117714 18.4899 0.0608126 19.0151 0.491125 19.249L4.35657 21.3492C4.77724 21.5778 5.3025 21.4536 5.57612 21.0607L8.57692 16.7529C10.1538 20.5913 9.06321 31.9092 8.57223 36.2206C8.52308 36.6518 8.66036 37.0834 8.94951 37.407C9.23866 37.7305 9.65209 37.9148 10.086 37.9148H29.9137C30.3474 37.9148 30.7601 37.7297 31.049 37.4064C31.3379 37.0831 31.4767 36.6515 31.4276 36.2206C30.9367 31.9092 29.8461 20.5915 31.423 16.7529L34.4238 21.0607C34.6974 21.4536 35.2226 21.5778 35.6433 21.3492L39.5089 19.249C39.9392 19.0151 40.1177 18.49 39.9191 18.0423L34.1538 5.05027C33.5922 3.78639 32.5359 2.80576 31.2302 2.33835C30.8844 2.2146 30.5294 2.13103 30.1711 2.08496H26.7402C26.2693 2.08496 25.8641 2.41322 25.7652 2.87367C25.2939 5.0654 22.8921 6.73375 20.0001 6.73375C17.108 6.73375 14.7063 5.06554 14.235 2.8738C14.1362 2.41429 13.7299 2.08509 13.26 2.08509H9.82901C9.47089 2.13117 9.11571 2.21487 8.76991 2.33849C7.46424 2.8059 6.40795 3.78666 5.84639 5.0504L0.0809019 18.0423Z" fill="white" fill-opacity="0.2"/>
    </g>
    <defs>
        <clipPath id="clip0_1225_3171">
            <rect width="40" height="40" fill="white"/>
        </clipPath>
    </defs>
</svg>
