<svg viewBox="0 0 40 40" fill="none" xmlns="http://www.w3.org/2000/svg">
    <path fill-rule="evenodd" clip-rule="evenodd" d="M20 5.41699C20 4.72663 20.5597 4.16699 21.25 4.16699C21.9403 4.16699 22.5 4.72663 22.5 5.41699V15.8337H23.3333V7.08366C23.3333 6.3933 23.893 5.83366 24.5833 5.83366C25.2737 5.83366 25.8333 6.3933 25.8333 7.08366V15.8337V20.0003L28.2689 16.9558C28.7768 16.321 29.6859 16.1798 30.3624 16.6308C31.0828 17.1111 31.2774 18.0842 30.7972 18.8046L27.2561 24.1162C26.4923 25.262 25.4455 26.1597 24.2423 26.7418L25 35.8337H15L15.7541 26.7846C14.3034 25.9093 13.3333 24.3182 13.3333 22.5003V15.8337V8.75033C13.3333 8.05997 13.893 7.50033 14.5833 7.50033C15.2737 7.50033 15.8333 8.05997 15.8333 8.75033V15.8337H16.6667V7.08366C16.6667 6.3933 17.2263 5.83366 17.9167 5.83366C18.607 5.83366 19.1667 6.3933 19.1667 7.08366V15.8337H20V5.41699ZM10 10.0003H11.6667V23.3337C11.6667 24.8755 12.5766 26.4872 13.7638 27.2035L14.2176 27.4772L13.5134 34.167H11.8375L12.4526 28.3241C10.984 27.2059 10 25.2387 10 23.3337V10.0003Z" fill="white" fill-opacity="0.2"/>
</svg>