<svg viewBox="0 0 40 40" fill="none" xmlns="http://www.w3.org/2000/svg">
    <g clip-path="url(#clip0_1225_3178)">
        <path d="M28.7603 2.58874C28.6772 2.05953 28.5761 1.53281 28.4521 1.01067L28.3107 0.415281C28.2528 0.171867 28.0355 0 27.7853 0H12.2132C11.9632 0 11.7458 0.171867 11.688 0.41515L11.5464 1.01106C11.4224 1.53307 11.3213 2.05953 11.2383 2.58874H28.7603Z" fill="white" fill-opacity="0.2"/>
        <path d="M11.0252 4.55091C10.9881 5.16304 10.9758 5.777 10.993 6.3911L11.8347 36.3442C11.843 36.6364 12.0822 36.8689 12.3744 36.8689H12.9005V39.4373C12.9005 39.7482 13.1525 40.0003 13.4634 40.0003H16.3267C16.6376 40.0003 16.8896 39.7483 16.8896 39.4373V36.8689H17.2802C17.5628 36.8689 17.7978 36.6509 17.8187 36.3689L19.6697 11.4174C19.6824 11.2454 19.8258 11.1124 19.9983 11.1124C20.1708 11.1124 20.314 11.2454 20.3269 11.4174L22.1779 36.3689C22.1988 36.6508 22.4336 36.8689 22.7164 36.8689H23.2334V39.4373C23.2334 39.7482 23.4855 40.0003 23.7964 40.0003H26.6597C26.9706 40.0003 27.2226 39.7483 27.2226 39.4373V36.8689H27.6221C27.9143 36.8689 28.1535 36.6364 28.1617 36.3442L29.0059 6.39149C29.0232 5.77714 29.011 5.16304 28.9739 4.55078H11.0252V4.55091Z" fill="white" fill-opacity="0.2"/>
    </g>
    <defs>
        <clipPath id="clip0_1225_3178">
            <rect width="40" height="40" fill="white"/>
        </clipPath>
    </defs>
</svg>
