<svg viewBox="0 0 40 40" fill="none" xmlns="http://www.w3.org/2000/svg">
    <g clip-path="url(#clip0_1166_2013)">
        <path d="M30.7076 20.4345L31.2907 19.3648C30.1098 18.8503 29.9205 18.813 29.8505 18.8017C29.6299 18.7217 28.8348 18.2725 27.7486 17.63L27.7886 17.5893C28.0491 17.3294 28.0491 16.9075 27.7886 16.647C27.5279 16.3871 27.1068 16.3871 26.8462 16.647L26.5683 16.9249C26.0212 16.5957 25.438 16.2411 24.8382 15.8745L24.9669 15.7466C25.2268 15.486 25.2268 15.0642 24.9669 14.8043C24.7063 14.5437 24.2844 14.5437 24.0245 14.8043L23.6707 15.1581C23.2315 14.8875 22.7936 14.6163 22.3645 14.3497L22.4778 14.2364C22.7384 13.9765 22.7384 13.5546 22.4778 13.2941C22.2179 13.0342 21.796 13.0342 21.5355 13.2941L21.2042 13.6253C19.4541 12.5283 18.0253 11.6107 17.6328 11.3161C16.08 10.1491 13.6655 11.8039 13.3536 12.0292C13.125 12.2212 12.9044 12.3991 12.6885 12.5703L26.7823 21.3287C28.1145 22.1652 29.8732 21.762 30.7076 20.4345Z" fill="white" fill-opacity="0.2"/>
        <path d="M10.0102 21.7625C13.9589 21.7625 16.3954 20.9107 16.6653 20.4296C16.3961 19.9484 13.9596 19.0967 10.0102 19.0967C5.9823 19.0967 3.52775 19.9824 3.3418 20.4575C3.52775 20.8761 5.98292 21.7625 10.0102 21.7625ZM8.67732 19.7632H11.343C11.7116 19.7632 12.0095 20.061 12.0095 20.4296C12.0095 20.7981 11.7116 21.096 11.343 21.096H8.67732C8.30877 21.096 8.0109 20.7981 8.0109 20.4296C8.0109 20.061 8.30877 19.7632 8.67732 19.7632Z" fill="white" fill-opacity="0.2"/>
        <path d="M37.3256 21.9103L37.0183 21.7937C35.8953 21.3678 34.7344 20.9266 33.6348 20.4215C33.2142 20.2276 32.8417 20.0576 32.5105 19.9083L31.8567 21.1079C31.2429 22.0882 30.3165 22.7453 29.2283 22.9939C28.9164 23.0652 28.6019 23.1005 28.2893 23.1005C27.513 23.1005 26.7506 22.8826 26.0767 22.4594L11.541 13.4272C8.75399 15.3818 7.22647 15.4458 6.51476 15.2612C5.80368 15.0766 5.51979 14.5688 5.45379 14.4282C5.29182 13.4585 4.95795 12.1936 3.975 11.963C3.01931 11.737 2.27691 12.7294 2.16695 12.8866C-1.37785 18.7693 0.302899 23.693 1.12598 25.441C0.854742 25.6849 0.680114 26.0355 0.680114 26.428V27.7602C0.680114 28.4953 1.27858 29.0931 2.01302 29.0931L35.8261 29.0924C35.8408 29.0931 35.9161 29.0977 36.0381 29.0977C36.5866 29.0977 38.0614 29.0058 39.0544 28.0815C39.6769 27.5017 39.9954 26.7226 40.0001 25.7656V25.7636V25.7615C40 23.9875 39.0003 22.548 37.3256 21.9103ZM10.0102 17.7644C12.9805 17.7644 18.0075 18.3262 18.0075 20.4301C18.0075 22.5347 12.9805 23.0958 10.0102 23.0958C7.03989 23.0958 2.01294 22.5347 2.01294 20.4301C2.01294 18.3261 7.03989 17.7644 10.0102 17.7644ZM38.1493 27.1025C37.3616 27.8402 35.9267 27.7636 35.8693 27.7609L2.01294 27.7602V26.428H2.04762H38.5711C38.4871 26.6946 38.3472 26.9179 38.1493 27.1025Z" fill="white" fill-opacity="0.2"/>
    </g>
    <defs>
        <clipPath id="clip0_1166_2013">
            <rect width="40" height="40" fill="white"/>
        </clipPath>
    </defs>
</svg>
