<svg viewBox="0 0 40 40" fill="none" xmlns="http://www.w3.org/2000/svg">
    <g clip-path="url(#clip0_1166_2063)">
        <path d="M2.30762 3.60707V22.3078C2.30762 32.0633 10.2443 40.0001 20 40.0001C29.7557 40.0001 37.6922 32.0634 37.6922 22.3078V3.60707C37.6922 2.51787 37.2073 1.49873 36.3615 0.810976C35.5141 0.122065 34.4173 -0.145467 33.3518 0.076995C29.7142 0.837556 24.9725 1.25633 20 1.25633C15.0274 1.25633 10.2856 0.837556 6.64809 0.076995C6.40107 0.0254242 6.15217 0 5.90544 0C5.08608 0 4.28768 0.279811 3.63762 0.80852C2.79227 1.49599 2.30762 2.51599 2.30762 3.60707ZM23.1471 13.0416C24.4477 11.7411 26.1769 11.0247 28.0162 11.0247C29.8554 11.0247 31.5847 11.7411 32.8852 13.0416C33.7313 13.8879 33.7311 15.2597 32.885 16.1061C32.4619 16.5291 31.9074 16.7407 31.3529 16.7407C30.7984 16.7407 30.2438 16.5291 29.8207 16.106C29.3388 15.6239 28.698 15.3584 28.0163 15.3584C27.3346 15.3584 26.6938 15.6239 26.2119 16.106C25.3655 16.9521 23.9939 16.9522 23.1474 16.1061C22.3012 15.2599 22.301 13.888 23.1471 13.0416ZM24.0634 25.2653C24.9095 24.4193 26.2815 24.419 27.1278 25.2653C27.9738 26.1114 27.974 27.4833 27.1278 28.3297C25.2238 30.2338 22.6925 31.2822 19.9999 31.2822C17.3071 31.2822 14.7758 30.2336 12.8718 28.3297C12.0256 27.4835 12.0256 26.1116 12.8718 25.2653C13.718 24.4193 15.0899 24.419 15.9362 25.2653C17.0216 26.3509 18.4647 26.9485 19.9999 26.9485C21.5348 26.9487 22.978 26.3509 24.0634 25.2653ZM6.87185 13.0416C9.55671 10.3565 13.9249 10.3568 16.6098 13.0416C17.456 13.8877 17.456 15.2597 16.6098 16.106C16.1867 16.5291 15.6321 16.7407 15.0777 16.7407C14.5231 16.7407 13.9685 16.5291 13.5456 16.106C12.5504 15.1108 10.9313 15.111 9.93634 16.106C9.09011 16.9521 7.71807 16.9521 6.87199 16.106C6.02562 15.2599 6.02562 13.8879 6.87185 13.0416Z" fill="white" fill-opacity="0.2"/>
    </g>
    <defs>
        <clipPath id="clip0_1166_2063">
            <rect width="40" height="40" fill="white"/>
        </clipPath>
    </defs>
</svg>
