<svg viewBox="0 0 40 40" fill="none" xmlns="http://www.w3.org/2000/svg">
    <path d="M15.0289 29.1853L17.3179 25.0231C17.8712 24.0169 17.6322 22.7538 16.7497 22.0194C15.1878 20.7158 13.5653 20.208 10.963 20.208C9.68148 20.208 8.33904 20.2962 6.9731 20.47C5.13402 20.7043 4.02682 22.6099 4.71855 24.3294L6.42028 28.627C6.74786 29.4543 7.53466 29.9889 8.42459 29.9889H13.6721C14.2378 29.9889 14.7581 29.6805 15.0289 29.1853ZM7.50974 28.1955L5.81832 23.924L5.8066 23.8947C5.39886 22.881 6.04707 21.7692 7.12099 21.6326C8.43803 21.465 9.73062 21.38 10.9629 21.38C13.3193 21.38 14.6371 21.7827 15.9987 22.919C15.999 22.9193 15.9993 22.9195 15.9996 22.9197C16.4519 23.2958 16.5744 23.943 16.2909 24.4584L14.0014 28.6218C13.9355 28.7422 13.8092 28.8171 13.6719 28.8171H8.42444C8.01834 28.8171 7.65919 28.573 7.50974 28.1955Z" fill="white" fill-opacity="0.2"/>
    <path d="M26.3281 29.9889H31.5755C32.4655 29.9889 33.2522 29.4543 33.5799 28.6269L35.2706 24.3569L35.2806 24.332C35.9746 22.6067 34.8639 20.7039 33.027 20.47C31.6609 20.2962 30.3186 20.208 29.0372 20.208C26.4347 20.208 24.8123 20.7158 23.2504 22.0193C22.3679 22.7538 22.1289 24.0169 22.6822 25.0231L24.9705 29.1842C25.2421 29.6805 25.7623 29.9889 26.3281 29.9889ZM24.0004 22.9197C24.0007 22.9194 24.001 22.9192 24.0013 22.919C25.363 21.7826 26.6807 21.3799 29.0372 21.3799C30.2693 21.3799 31.5619 21.4649 32.8791 21.6326C33.9552 21.7694 34.6001 22.8836 34.1939 23.8934L32.4903 28.1953C32.3408 28.5729 31.9816 28.8169 31.5755 28.8169H26.3281C26.1907 28.8169 26.0645 28.7421 25.9979 28.6204L23.709 24.4583C23.4256 23.943 23.5481 23.2958 24.0004 22.9197Z" fill="white" fill-opacity="0.2"/>
    <path d="M38.8545 19.2072C38.7053 19.1642 38.5298 19.1152 38.3323 19.0623L35.3274 14.7487C35.1425 14.4832 34.7773 14.418 34.5117 14.6028C34.2462 14.7878 34.1809 15.153 34.3658 15.4185L36.615 18.6473C35.9323 18.4994 35.1382 18.3469 34.2652 18.2135L30.4423 11.5805C29.6954 10.2846 28.1189 9.67337 26.6939 10.127C26.1248 10.3082 25.5271 9.95611 25.409 9.37142C25.2835 8.75094 25.7582 8.17188 26.3903 8.17188C28.2234 8.17188 29.9433 9.06985 30.9911 10.5739L32.8028 13.1747C32.9877 13.4402 33.3529 13.5053 33.6185 13.3206C33.884 13.1356 33.9493 12.7703 33.7644 12.5049L31.9526 9.90407C30.6858 8.08571 28.6065 7 26.3903 7C25.0162 7 23.9885 8.25876 24.2603 9.60368C24.5167 10.8707 25.8181 11.6355 27.0493 11.2437C27.9532 10.9562 28.9532 11.3436 29.427 12.1656L32.8016 18.0208C31.628 17.8882 30.3575 17.8014 29.0371 17.8014C25.8489 17.8014 23.7257 18.4882 21.7085 20.1718C20.6866 21.0246 19.3137 21.0246 18.2919 20.1718C16.2748 18.4882 14.1515 17.8014 10.9633 17.8014C9.64285 17.8014 8.3723 17.8882 7.19878 18.0208L10.5733 12.1656C11.047 11.3437 12.0471 10.9562 12.9509 11.2437C14.1797 11.635 15.4832 10.8728 15.74 9.60368C16.0123 8.25672 14.9821 7 13.61 7C11.3939 7 9.31449 8.08563 8.04761 9.90407L1.66805 19.0623C1.47063 19.1152 1.29516 19.1642 1.14586 19.2072C0.471174 19.4014 0 20.0279 0 20.7307V22.2147C0 23.208 0.769144 23.5859 1.0975 23.7473C1.76696 24.0756 2.24102 24.6073 2.49298 25.2437L4.18338 29.5125C4.87674 31.2635 6.54174 32.395 8.42503 32.395H9.6966C10.0203 32.395 10.2825 32.1328 10.2825 31.8091C10.2825 31.4854 10.0203 31.2231 9.6966 31.2231C9.37293 31.2231 8.42503 31.2231 8.42503 31.2231C7.0255 31.2231 5.78823 30.3824 5.27299 29.0811L3.58259 24.8123C3.22962 23.9208 2.55704 23.1563 1.6143 22.6955C1.28235 22.5323 1.17188 22.44 1.17188 22.2147V20.7307C1.17188 20.5472 1.29446 20.3839 1.47008 20.3333C2.89032 19.9244 6.65839 18.9734 10.9633 18.9734C13.8878 18.9734 15.7319 19.5616 17.5409 21.0715C18.989 22.28 21.0115 22.28 22.4594 21.0715C24.2684 19.5616 26.1126 18.9734 29.037 18.9734C32.6684 18.9734 35.918 19.6502 37.6983 20.1073L37.7032 20.1086C38.0312 20.1929 38.3091 20.2696 38.5302 20.3333C38.7057 20.3838 38.8283 20.5472 38.8283 20.7307V22.2147C38.8283 22.498 38.6306 22.5683 38.3005 22.7381C37.4416 23.1783 36.773 23.9149 36.4175 24.8123L34.7272 29.0812C34.2119 30.3824 32.9747 31.2231 31.5751 31.2231H26.3277C25.3104 31.2231 24.3753 30.6688 23.8872 29.7763L21.8593 26.0691C21.4823 25.3798 20.7874 24.9682 20.0008 24.9682C19.2132 24.9682 18.5178 25.3798 18.1406 26.0691L16.1127 29.7763C15.6246 30.6688 14.6894 31.2231 13.6722 31.2231H12.4308C12.1071 31.2231 11.8448 31.4854 11.8448 31.8091C11.8448 32.1328 12.1071 32.395 12.4308 32.395H13.6722C15.118 32.395 16.4471 31.6071 17.1408 30.3388L19.1687 26.6316C19.337 26.3239 19.6481 26.1402 20.0006 26.1402C20.3523 26.1402 20.6628 26.3239 20.8311 26.6316L22.859 30.3388C23.5528 31.6071 24.882 32.395 26.3276 32.395H31.575C33.4583 32.395 35.1233 31.2636 35.8167 29.5125L37.5069 25.2437C37.7592 24.6069 38.2337 24.0753 38.9025 23.7473C39.2309 23.5859 40 23.208 40 22.2147V20.7307C40.0003 20.0278 39.5291 19.4014 38.8545 19.2072ZM9.00925 10.5739C10.0571 9.06985 11.777 8.17188 13.6101 8.17188C14.2431 8.17188 14.7167 8.75204 14.5914 9.37142C14.5343 9.65392 14.3659 9.89001 14.1176 10.0361C13.8692 10.1821 13.5811 10.2146 13.3065 10.1271C11.8815 9.67345 10.305 10.2848 9.55808 11.5806L5.73518 18.2135C4.86213 18.3469 4.06798 18.4994 3.38533 18.6473L9.00925 10.5739Z" fill="white" fill-opacity="0.2"/>
    <path d="M10.2825 31.8091C10.2825 32.1328 10.0203 32.395 9.6966 32.395H12.4308C12.1071 32.395 11.8448 32.1328 11.8448 31.8091C11.8448 31.4854 12.1071 31.2231 12.4308 31.2231H9.6966C10.0203 31.2231 10.2825 31.4854 10.2825 31.8091Z" fill="white" fill-opacity="0.2"/>
    <path d="M34.5117 14.6028C34.7773 14.418 35.1425 14.4832 35.3274 14.7487L33.7644 12.5049C33.9493 12.7703 33.884 13.1356 33.6185 13.3206C33.3529 13.5053 32.9877 13.4402 32.8028 13.1747L34.3658 15.4185C34.1809 15.153 34.2462 14.7878 34.5117 14.6028Z" fill="white" fill-opacity="0.2"/>
</svg>
