<svg viewBox="0 0 40 40" fill="none" xmlns="http://www.w3.org/2000/svg">
    <path d="M12.252 33.2023C15.1892 33.2023 17.8873 32.1615 19.9999 30.4314C22.1129 32.1615 24.8111 33.2023 27.7476 33.2023C34.5041 33.2023 40 27.7053 40 20.95C40 15.8223 36.7644 11.1955 31.9499 9.43692C31.4935 9.27038 31.0078 9.35826 30.6433 9.62609C30.5916 9.61451 30.5453 9.59399 30.4847 9.59399H30.1359C29.2498 9.59399 29.2409 10.9437 30.1025 10.9822C30.1843 11.4583 30.5057 11.8803 30.9935 12.0584C34.7126 13.4156 37.2113 16.9892 37.2113 20.9498C37.2113 26.1669 32.9662 30.412 27.7483 30.412C25.5618 30.412 23.5536 29.66 21.9488 28.4108C23.5448 26.3414 24.5046 23.7591 24.5046 20.9498C24.5046 18.1897 23.5612 15.5793 21.9441 13.479C22.7063 12.884 23.5652 12.4007 24.5025 12.0584C25.0434 11.861 25.3874 11.3644 25.4173 10.8238C26.9105 9.97469 28.3103 8.97545 29.7905 8.10354C30.5642 7.64707 29.8627 6.44102 29.0867 6.89881C27.6283 7.75743 26.2476 8.74011 24.7796 9.58057C24.4242 9.35102 23.9725 9.28051 23.5468 9.43679C22.2335 9.91602 21.0442 10.6143 19.9999 11.4722C18.956 10.6149 17.7666 9.91681 16.4536 9.43679C15.9431 9.24986 15.3952 9.3868 15.0225 9.73685C14.9166 9.6545 14.7882 9.59307 14.6159 9.59307C13.7195 9.59307 13.7174 10.9755 14.6067 10.986C14.6905 11.4601 15.012 11.8801 15.4977 12.0575C16.435 12.3999 17.2942 12.8831 18.0562 13.4781C16.439 15.5784 15.4953 18.1887 15.4953 20.949C15.4953 23.7581 16.4553 26.3405 18.051 28.4098C16.4476 29.6592 14.438 30.4106 12.2518 30.4106C7.03433 30.4106 2.78989 26.166 2.78989 20.949C2.78989 16.9884 5.28841 13.4148 9.00704 12.0575C9.52534 11.8685 9.85816 11.404 9.91157 10.8896C11.2711 10.2081 12.5273 9.3622 13.7479 8.45109C14.4601 7.91977 13.766 6.7082 13.0443 7.24637C11.8648 8.12682 10.6517 8.94585 9.34577 9.61622C8.98309 9.35457 8.50175 9.27156 8.0512 9.436C3.23598 11.1949 0 15.8218 0 20.9494C0 27.7053 5.49638 33.2023 12.252 33.2023ZM20.001 15.5271C21.0906 17.0857 21.7152 18.9688 21.7152 20.9501C21.7152 22.9644 21.0782 24.8293 20.001 26.3654C18.9237 24.8293 18.2865 22.9644 18.2865 20.9501C18.2865 18.9688 18.9104 17.0857 20.001 15.5271Z" fill="white" fill-opacity="0.2"/>
</svg>
