<svg viewBox="0 0 68 68" fill="none" xmlns="http://www.w3.org/2000/svg">
    <path d="M2.88003 66.784L2.69326 67.2478L2.88003 66.784ZM14.3524 1.04405L14.7059 1.39761L14.7079 1.39562L14.3524 1.04405ZM64 67.5C65.933 67.5 67.5 65.933 67.5 64H66.5C66.5 65.3807 65.3807 66.5 64 66.5V67.5ZM4 0.5C2.06701 0.5 0.5 2.067 0.5 4H1.5C1.5 2.61929 2.61929 1.5 4 1.5V0.5ZM0.5 4V8.36516H1.5V4H0.5ZM0.5 8.36516V14.3964H1.5V8.36516H0.5ZM0.5 14.3964V20.4267H1.5V14.3964H0.5ZM0.5 20.4267V26.456H1.5V20.4267H0.5ZM0.5 26.456V32.4863H1.5V26.456H0.5ZM0.5 32.4863V38.5165H1.5V32.4863H0.5ZM0.5 38.5165V44.5478H1.5V38.5165H0.5ZM0.5 44.5478V50.5741H1.5V44.5478H0.5ZM0.5 50.5741V56.6044H1.5V50.5741H0.5ZM0.5 56.6044V62.6337H1.5V56.6044H0.5ZM0.5 62.6337V64H1.5V62.6337H0.5ZM0.5 64C0.5 65.4719 1.40839 66.7304 2.69326 67.2478L3.06679 66.3201C2.14746 65.95 1.5 65.05 1.5 64H0.5ZM2.69326 67.2478C3.09767 67.4106 3.53901 67.5 4 67.5V66.5C3.66915 66.5 3.35448 66.436 3.06679 66.3201L2.69326 67.2478ZM4 67.5H8.69426V66.5H4V67.5ZM8.69426 67.5H14.7236V66.5H8.69426V67.5ZM14.7236 67.5H20.7538V66.5H14.7236V67.5ZM20.7538 67.5H26.7841V66.5H20.7538V67.5ZM26.7841 67.5H32.8144V66.5H26.7841V67.5ZM32.8144 67.5H38.8447V66.5H32.8144V67.5ZM38.8447 67.5H44.8739V66.5H38.8447V67.5ZM44.8739 67.5H50.9032V66.5H44.8739V67.5ZM50.9032 67.5H56.9345V66.5H50.9032V67.5ZM56.9345 67.5H62.9638V66.5H56.9345V67.5ZM62.9638 67.5H64V66.5H62.9638V67.5ZM67.5 64V62.9638H66.5V64H67.5ZM67.5 62.9638V56.9345H66.5V62.9638H67.5ZM57.288 67.3536L67.3536 57.288L66.6464 56.5809L56.5809 66.6464L57.288 67.3536ZM67.5 56.9345V50.9032H66.5V56.9345H67.5ZM51.2568 67.3536L67.3536 51.2568L66.6464 50.5497L50.5497 66.6464L51.2568 67.3536ZM67.5 50.9032V44.8739H66.5V50.9032H67.5ZM45.2275 67.3536L67.3536 45.2275L66.6464 44.5204L44.5204 66.6464L45.2275 67.3536ZM67.5 44.8739V38.8447H66.5V44.8739H67.5ZM39.1982 67.3536L67.3536 39.1982L66.6464 38.4911L38.4911 66.6464L39.1982 67.3536ZM67.5 38.8447V32.8144H66.5V38.8447H67.5ZM33.1679 67.3536L67.3536 33.1679L66.6464 32.4608L32.4608 66.6464L33.1679 67.3536ZM67.5 32.8144V26.7841H66.5V32.8144H67.5ZM27.1377 67.3536L67.3536 27.1377L66.6464 26.4306L26.4306 66.6464L27.1377 67.3536ZM67.5 26.7841V20.7538H66.5V26.7841H67.5ZM21.1074 67.3536L67.3536 21.1074L66.6464 20.4003L20.4003 66.6464L21.1074 67.3536ZM67.5 20.7538V14.7236H66.5V20.7538H67.5ZM15.0771 67.3536L67.3536 15.0771L66.6464 14.37L14.37 66.6464L15.0771 67.3536ZM67.5 14.7236V8.69426H66.5V14.7236H67.5ZM67.5 8.69426V4H66.5V8.69426H67.5ZM9.04781 67.3536L67.3536 9.04782L66.6464 8.34071L8.34071 66.6464L9.04781 67.3536ZM3.23358 67.1375L67.1375 3.23358L66.4304 2.52647L2.52647 66.4304L3.23358 67.1375ZM67.5 4C67.5 3.53901 67.4106 3.09767 67.2478 2.69326L66.3201 3.06679C66.436 3.35448 66.5 3.66915 66.5 4H67.5ZM67.2478 2.69326C66.7304 1.40839 65.4719 0.5 64 0.5V1.5C65.05 1.5 65.95 2.14746 66.3201 3.06679L67.2478 2.69326ZM1.35355 62.9873L62.9873 1.35355L62.2802 0.646447L0.646447 62.2802L1.35355 62.9873ZM64 0.5H62.6337V1.5H64V0.5ZM62.6337 0.5H56.6044V1.5H62.6337V0.5ZM1.35355 56.958L56.958 1.35355L56.2509 0.646447L0.646447 56.2509L1.35355 56.958ZM56.6044 0.5H50.5741V1.5H56.6044V0.5ZM1.35355 50.9277L50.9277 1.35355L50.2206 0.646447L0.646447 50.2206L1.35355 50.9277ZM50.5741 0.5H44.5478V1.5H50.5741V0.5ZM1.35355 44.9013L44.9013 1.35355L44.1942 0.646447L0.646447 44.1942L1.35355 44.9013ZM1.35355 32.8398L32.8398 1.35355L32.1327 0.646447L0.646447 32.1327L1.35355 32.8398ZM1.35355 20.7802L20.7802 1.35355L20.0731 0.646447L0.646447 20.0731L1.35355 20.7802ZM8.36516 0.5H4V1.5H8.36516V0.5ZM1.35355 8.71871L8.71871 1.35355L8.0116 0.646447L0.646447 8.0116L1.35355 8.71871ZM20.4267 0.5H14.3959V1.5H20.4267V0.5ZM14.3959 0.5H8.36516V1.5H14.3959V0.5ZM44.5478 0.5H38.5165V1.5H44.5478V0.5ZM38.5165 0.5H32.4863V1.5H38.5165V0.5ZM1.35355 38.8701L38.8701 1.35355L38.163 0.646447L0.646447 38.163L1.35355 38.8701ZM32.4863 0.5H26.456V1.5H32.4863V0.5ZM26.456 0.5H20.4267V1.5H26.456V0.5ZM1.35355 26.8095L26.8095 1.35355L26.1024 0.646447L0.646447 26.1024L1.35355 26.8095ZM1.35355 14.75L14.7059 1.3976L13.9988 0.690496L0.646447 14.0429L1.35355 14.75ZM14.0404 0.64843L13.9968 0.692479L14.7079 1.39562L14.7514 1.35157L14.0404 0.64843ZM63.3173 67.3536L65.3354 65.3354L64.6283 64.6283L62.6102 66.6464L63.3173 67.3536ZM65.3354 65.3354L67.3536 63.3173L66.6464 62.6102L64.6283 64.6283L65.3354 65.3354Z" fill="white" fill-opacity="0.05"/>
</svg>
