<svg viewBox="0 0 14 14" fill="none" xmlns="http://www.w3.org/2000/svg">
    <path d="M11.3612 4.65204H8.99776C8.5448 4.65204 8.16999 4.32103 8.09949 3.88791C8.69925 3.51783 9.09996 2.85485 9.09996 2.09982C9.09992 0.941977 8.15803 0 7.00024 0C5.8424 0 4.90042 0.941977 4.90042 2.09982C4.90042 2.85485 5.30114 3.51783 5.90094 3.88791C5.83049 4.32103 5.45573 4.65204 5.00272 4.65204H2.63925L1.45703 14H12.5434L11.3612 4.65204ZM7.00024 1.11552C7.54294 1.11552 7.9844 1.55707 7.9844 2.09977C7.9844 2.64247 7.54289 3.08397 7.00024 3.08397C6.45754 3.08397 6.01599 2.64247 6.01599 2.09977C6.01594 1.55707 6.4575 1.11552 7.00024 1.11552Z" fill="white" fill-opacity="0.25"/>
</svg>
