<svg width="20" height="27" viewBox="0 0 20 27" fill="none" xmlns="http://www.w3.org/2000/svg">
    <path d="M19.9941 15.24C19.9941 13.8951 18.9052 12.8063 17.5632 12.8091H16.8441L16.8415 7.07722C16.8384 3.17326 13.6625 -0.00259765 9.75852 1.59435e-06C5.85477 0.00284454 2.6813 3.17898 2.6813 7.08294L2.68414 12.8153H2.43092C1.08887 12.8182 0 13.907 0 15.249L0.00588891 23.7699C0.00588891 25.1119 1.09471 26.2008 2.43681 26.2008L17.5691 26.1921C18.9111 26.1921 20 25.1032 20 23.7611L19.9941 15.24ZM5.29587 12.815L5.29302 7.08263C5.29018 4.61678 7.29584 2.6111 9.75863 2.60829C12.2245 2.60829 14.2302 4.61418 14.233 7.07696L14.236 12.8088L5.29587 12.815Z" fill="white" fill-opacity="0.5"/>
</svg>
