<svg viewBox="0 0 26 26" fill="none" xmlns="http://www.w3.org/2000/svg">
    <path fill-rule="evenodd" clip-rule="evenodd" d="M0 12.9997C0 14.0879 0.881516 14.9694 1.96968 14.9694H10.2425C10.6772 14.9694 11.03 15.3222 11.03 15.7575V24.0303C11.03 25.1179 11.9121 26 12.9997 26C14.0879 26 14.9694 25.1179 14.9694 24.0303V15.7575C14.9694 15.3222 15.3222 14.9694 15.7575 14.9694H24.0303C25.1179 14.9694 26 14.0879 26 12.9997C26 11.9121 25.1179 11.03 24.0303 11.03H15.7575C15.3222 11.03 14.9694 10.6772 14.9694 10.2425V1.96968C14.9694 0.881518 14.0879 0 12.9997 0C11.9121 0 11.03 0.881518 11.03 1.96968V10.2425C11.03 10.6772 10.6772 11.03 10.2425 11.03H1.96968C0.881516 11.03 0 11.9121 0 12.9997Z" fill="white"/>
</svg>
