<svg viewBox="0 0 26 26" fill="none" xmlns="http://www.w3.org/2000/svg">
    <path d="M12.2951 0.803596C12.3607 1.30922 12.0054 1.7726 11.501 1.83861C10.9966 1.90469 10.5344 1.54828 10.4685 1.04269C10.4029 0.537068 10.7581 0.0736862 11.2625 0.00789113C11.7669 -0.0581821 12.2292 0.297941 12.2951 0.803596Z" fill="white"/>
    <path d="M18.5415 1.60779C18.6074 2.11342 18.2519 2.5768 17.7475 2.64281C17.2431 2.70888 16.7808 2.35248 16.7151 1.84689C16.6492 1.34154 17.0045 0.878167 17.5089 0.812085C18.0134 0.746012 18.4756 1.10242 18.5415 1.60779" fill="white"/>
    <path d="M6.31912 2.78251C6.6283 3.18706 6.5515 3.76656 6.14763 4.07655C5.74377 4.38647 5.16593 4.30948 4.85669 3.90465C4.54751 3.50009 4.62403 2.92059 5.0279 2.61061C5.43176 2.30062 6.00989 2.37767 6.31913 2.78251" fill="white"/>
    <path d="M2.12343 7.43959C2.59321 7.63501 2.81581 8.17537 2.62058 8.64626C2.42562 9.11689 1.88655 9.34003 1.41679 9.14461C0.947012 8.9489 0.72441 8.40882 0.919642 7.93793C1.11487 7.46702 1.65367 7.24389 2.12343 7.43959" fill="white"/>
    <path d="M25.3161 8.75157L24.3953 9.75498L23.7945 10.4373C24.7153 14.5713 23.2739 19.0265 19.7103 21.7557C14.8254 25.4883 7.85837 24.5652 4.13462 19.6686C2.93334 18.1033 2.17257 16.2972 1.93233 14.3704C1.85217 13.8486 1.37178 13.4474 0.851172 13.5274C0.330562 13.6078 -0.0696846 14.0893 0.0101815 14.6112C0.2906 16.8587 1.21146 19.0263 2.57276 20.8724C4.6949 23.6419 7.77808 25.4479 11.2215 25.8894C14.6649 26.331 18.1084 25.4479 20.8712 23.3207C23.634 21.1935 25.4358 18.1029 25.8762 14.6512C26.1567 12.6447 25.9567 10.6379 25.316 8.75146L25.3161 8.75157Z" fill="white"/>
    <path d="M25.4363 5.86162L22.073 2.49023L10.5814 14.0495L7.37839 10.8388L5.09595 13.1665L11.6226 19.7088L13.9047 17.3809L25.4363 5.86162Z" fill="white"/>
</svg>