<svg viewBox="0 0 242 131" fill="none" xmlns="http://www.w3.org/2000/svg">
    <g filter="url(#filter0_d_1868_2)">
        <rect x="18" y="8" width="206" height="95" rx="5" fill="white"/>
        <rect x="18.5" y="8.5" width="205" height="94" rx="4.5" stroke="#D9D9D9" stroke-opacity="0.15"/>
    </g>
    <path d="M30.4 53.256V33.4H37.88V53.256L36.928 68.42H31.352L30.4 53.256ZM30.536 73.792H37.744V81H30.536V73.792Z" fill="#242424" fill-opacity="0.2"/>
    <path d="M52.7998 84V73.8691H60.2783V84H58.8975V75.1064H54.1465V84H52.7998ZM61.7959 86.9121V76.7197H62.9033L63.0469 77.4922C63.6257 77.1458 64.0882 76.9202 64.4346 76.8154C64.7855 76.7061 65.0931 76.6514 65.3574 76.6514C66.0729 76.6514 66.6585 76.8633 67.1143 77.2871C67.57 77.7064 67.7979 78.3604 67.7979 79.249V81.4844C67.7979 82.3184 67.57 82.9609 67.1143 83.4121C66.6585 83.8633 66.0342 84.0889 65.2412 84.0889C64.9769 84.0889 64.667 84.0615 64.3115 84.0068C63.9606 83.9567 63.5391 83.8314 63.0469 83.6309V86.9121H61.7959ZM63.0469 82.4414C63.4935 82.6283 63.874 82.7513 64.1885 82.8105C64.5075 82.8652 64.8174 82.8926 65.1182 82.8926C65.3141 82.8926 65.4987 82.8721 65.6719 82.8311C65.8451 82.7855 65.9954 82.708 66.123 82.5986C66.2507 82.4847 66.3509 82.332 66.4238 82.1406C66.4967 81.9492 66.5332 81.7122 66.5332 81.4297V79.3447C66.5332 78.7842 66.4147 78.3991 66.1777 78.1895C65.9453 77.9753 65.6331 77.8682 65.2412 77.8682C65.1045 77.8682 64.9427 77.8932 64.7559 77.9434C64.569 77.9889 64.3753 78.0527 64.1748 78.1348C63.9743 78.2122 63.7738 78.3034 63.5732 78.4082C63.3773 78.5085 63.2018 78.6133 63.0469 78.7227V82.4414ZM69.1924 84V76.7197H70.4775V81.9697H70.5322L71.6191 80.3086L74.0459 76.7197H75.2354V84H73.9434V78.7363H73.875L72.7676 80.4248L70.3545 84H69.1924ZM76.6709 81.3545V79.2695C76.6709 78.8503 76.6937 78.4219 76.7393 77.9844C76.7848 77.5469 76.8691 77.1299 76.9922 76.7334C77.1198 76.3324 77.2998 75.9609 77.5322 75.6191C77.7692 75.2773 78.0791 74.9902 78.4619 74.7578C78.7809 74.5618 79.125 74.3887 79.4941 74.2383C79.8633 74.0879 80.221 73.9466 80.5674 73.8145C80.6859 73.7689 80.7861 73.7279 80.8682 73.6914C80.9502 73.6549 81.0345 73.6185 81.1211 73.582C81.2122 73.541 81.3079 73.4954 81.4082 73.4453C81.513 73.3952 81.6452 73.3359 81.8047 73.2676L82.2627 74.3271C81.971 74.4548 81.734 74.5573 81.5518 74.6348C81.374 74.7077 81.2236 74.7669 81.1006 74.8125C80.9775 74.8581 80.8659 74.8991 80.7656 74.9355C80.6699 74.972 80.5605 75.0199 80.4375 75.0791C80.0273 75.2568 79.6833 75.4186 79.4053 75.5645C79.1318 75.7103 78.9017 75.8766 78.7148 76.0635C78.528 76.2503 78.3844 76.4691 78.2842 76.7197C78.1885 76.9658 78.1133 77.2757 78.0586 77.6494L78.0859 77.7041C78.2135 77.5765 78.3594 77.4694 78.5234 77.3828C78.6921 77.2962 78.8584 77.2256 79.0225 77.1709C79.1911 77.1162 79.3506 77.0798 79.501 77.0615C79.6514 77.0387 79.7812 77.0273 79.8906 77.0273C80.8158 77.0273 81.5153 77.2643 81.9893 77.7383C82.4632 78.2077 82.7002 78.8639 82.7002 79.707V81.3545C82.7002 81.7738 82.6182 82.1543 82.4541 82.4961C82.2946 82.8333 82.0758 83.1204 81.7979 83.3574C81.5199 83.5898 81.1986 83.7676 80.834 83.8906C80.4694 84.0091 80.082 84.0684 79.6719 84.0684C78.7285 84.0684 77.9925 83.8291 77.4639 83.3506C76.9352 82.8721 76.6709 82.2067 76.6709 81.3545ZM77.9355 81.1768C77.9355 81.4958 77.9811 81.7646 78.0723 81.9834C78.168 82.1976 78.2933 82.3753 78.4482 82.5166C78.6077 82.6533 78.7946 82.7513 79.0088 82.8105C79.223 82.8652 79.4531 82.8926 79.6992 82.8926C79.9225 82.8926 80.139 82.8652 80.3486 82.8105C80.5628 82.7513 80.7497 82.6533 80.9092 82.5166C81.0732 82.3753 81.2031 82.1953 81.2988 81.9766C81.3991 81.7578 81.4492 81.4912 81.4492 81.1768V79.9326C81.4492 79.2946 81.292 78.848 80.9775 78.5928C80.6676 78.3376 80.2415 78.21 79.6992 78.21C79.4941 78.21 79.2891 78.2441 79.084 78.3125C78.8789 78.3809 78.6898 78.4857 78.5166 78.627C78.3434 78.7682 78.2021 78.9528 78.0928 79.1807C77.988 79.404 77.9355 79.6729 77.9355 79.9873V81.1768ZM83.4453 83.1865C83.7188 83.0589 83.9603 82.9268 84.1699 82.79C84.3796 82.6533 84.5482 82.4665 84.6758 82.2295C84.8079 81.988 84.9059 81.6712 84.9697 81.2793C85.0335 80.8874 85.0654 80.3724 85.0654 79.7344V76.7197H90.124V84H88.8594V77.8408H86.3164V79.8096C86.3164 80.5661 86.2572 81.195 86.1387 81.6963C86.0202 82.193 85.8584 82.6032 85.6533 82.9268C85.4482 83.2503 85.2021 83.5101 84.915 83.7061C84.6279 83.902 84.3112 84.0684 83.9648 84.2051L83.4453 83.1865ZM91.7236 84V76.7197H93.0088V81.9697H93.0635L94.1504 80.3086L96.5771 76.7197H97.7666V84H96.4746V78.7363H96.4062L95.2988 80.4248L92.8857 84H91.7236ZM98.6895 83.1455L99.4551 82.2773C99.7057 82.5007 100.007 82.6693 100.357 82.7832C100.708 82.8926 101.025 82.9473 101.308 82.9473C101.622 82.9473 101.884 82.9154 102.094 82.8516C102.303 82.7832 102.474 82.6989 102.606 82.5986C102.739 82.4938 102.834 82.3753 102.894 82.2432C102.953 82.111 102.982 81.9766 102.982 81.8398C102.982 81.4935 102.853 81.2337 102.593 81.0605C102.333 80.8874 102.007 80.8008 101.615 80.8008H100.617V79.748H101.643C102.035 79.748 102.338 79.6523 102.552 79.4609C102.766 79.2695 102.873 79.0326 102.873 78.75C102.873 78.4264 102.732 78.1895 102.449 78.0391C102.171 77.8887 101.85 77.8135 101.485 77.8135C101.203 77.8135 100.904 77.8568 100.59 77.9434C100.28 78.0254 99.9997 78.1781 99.749 78.4014L98.9697 77.5332C99.3161 77.2096 99.7171 76.9795 100.173 76.8428C100.633 76.7061 101.093 76.6377 101.554 76.6377C101.978 76.6377 102.347 76.6924 102.661 76.8018C102.98 76.9066 103.244 77.0524 103.454 77.2393C103.668 77.4261 103.828 77.6403 103.933 77.8818C104.042 78.1188 104.097 78.3763 104.097 78.6543C104.097 78.7637 104.088 78.889 104.069 79.0303C104.051 79.167 104.003 79.3105 103.926 79.4609C103.853 79.6068 103.75 79.7458 103.618 79.8779C103.486 80.0101 103.308 80.1217 103.085 80.2129C103.308 80.2949 103.493 80.4043 103.639 80.541C103.789 80.6777 103.905 80.8258 103.987 80.9854C104.069 81.1449 104.126 81.2975 104.158 81.4434C104.19 81.5892 104.206 81.7168 104.206 81.8262C104.206 82.1497 104.145 82.446 104.021 82.7148C103.903 82.9837 103.725 83.2184 103.488 83.4189C103.256 83.6195 102.964 83.7767 102.613 83.8906C102.262 84 101.85 84.0547 101.376 84.0547C100.907 84.0547 100.439 83.9909 99.9746 83.8633C99.5098 83.7311 99.0814 83.4919 98.6895 83.1455ZM105.464 84V76.7197H106.749V81.9697H106.804L107.891 80.3086L110.317 76.7197H111.507V84H110.215V78.7363H110.146L109.039 80.4248L106.626 84H105.464ZM112.402 77.8408V76.7061H118.227V77.8408H115.957V84H114.651V77.8408H112.402ZM119.095 84V76.7061H120.366V79.543H122.287C122.702 79.543 123.066 79.5999 123.381 79.7139C123.7 79.8278 123.964 79.9827 124.174 80.1787C124.388 80.3701 124.548 80.6025 124.652 80.876C124.762 81.1449 124.816 81.4365 124.816 81.751C124.816 82.4255 124.598 82.9701 124.16 83.3848C123.727 83.7949 123.098 84 122.273 84H119.095ZM120.346 82.8789H122.246C122.665 82.8789 122.989 82.7855 123.217 82.5986C123.449 82.4072 123.565 82.1247 123.565 81.751C123.565 81.4821 123.463 81.2314 123.258 80.999C123.053 80.7666 122.715 80.6504 122.246 80.6504H120.346V82.8789Z" fill="black" fill-opacity="0.5"/>
    <path d="M153.332 84V73.8691H157.529C157.99 73.8691 158.397 73.9421 158.753 74.0879C159.113 74.2337 159.416 74.432 159.662 74.6826C159.913 74.9287 160.1 75.2135 160.223 75.5371C160.35 75.8561 160.414 76.1934 160.414 76.5488C160.414 76.9499 160.321 77.3441 160.134 77.7314C159.947 78.1143 159.623 78.4355 159.163 78.6953C159.655 78.9505 160.013 79.2946 160.236 79.7275C160.46 80.1559 160.571 80.5889 160.571 81.0264C160.571 81.391 160.51 81.751 160.387 82.1064C160.268 82.4574 160.088 82.7718 159.847 83.0498C159.61 83.3278 159.309 83.5557 158.944 83.7334C158.58 83.9111 158.163 84 157.693 84H153.332ZM154.692 82.7832H157.427C158.028 82.7832 158.479 82.6305 158.78 82.3252C159.086 82.0199 159.238 81.5869 159.238 81.0264C159.238 80.7529 159.186 80.5114 159.081 80.3018C158.981 80.0921 158.844 79.9144 158.671 79.7686C158.498 79.6182 158.302 79.5042 158.083 79.4268C157.864 79.3493 157.636 79.3105 157.399 79.3105H154.692V82.7832ZM154.692 78.0938H157.386C157.609 78.0938 157.823 78.0618 158.028 77.998C158.238 77.9342 158.418 77.8385 158.568 77.7109C158.723 77.5833 158.846 77.4238 158.938 77.2324C159.033 77.041 159.081 76.8223 159.081 76.5762C159.081 76.0475 158.91 75.6715 158.568 75.4482C158.231 75.2204 157.798 75.1064 157.27 75.1064H154.692V78.0938ZM161.932 86.9121V76.7197H163.039L163.183 77.4922C163.761 77.1458 164.224 76.9202 164.57 76.8154C164.921 76.7061 165.229 76.6514 165.493 76.6514C166.209 76.6514 166.794 76.8633 167.25 77.2871C167.706 77.7064 167.934 78.3604 167.934 79.249V81.4844C167.934 82.3184 167.706 82.9609 167.25 83.4121C166.794 83.8633 166.17 84.0889 165.377 84.0889C165.113 84.0889 164.803 84.0615 164.447 84.0068C164.096 83.9567 163.675 83.8314 163.183 83.6309V86.9121H161.932ZM163.183 82.4414C163.629 82.6283 164.01 82.7513 164.324 82.8105C164.643 82.8652 164.953 82.8926 165.254 82.8926C165.45 82.8926 165.634 82.8721 165.808 82.8311C165.981 82.7855 166.131 82.708 166.259 82.5986C166.386 82.4847 166.487 82.332 166.56 82.1406C166.632 81.9492 166.669 81.7122 166.669 81.4297V79.3447C166.669 78.7842 166.55 78.3991 166.313 78.1895C166.081 77.9753 165.769 77.8682 165.377 77.8682C165.24 77.8682 165.078 77.8932 164.892 77.9434C164.705 77.9889 164.511 78.0527 164.311 78.1348C164.11 78.2122 163.91 78.3034 163.709 78.4082C163.513 78.5085 163.338 78.6133 163.183 78.7227V82.4414ZM169.157 81.8672C169.157 81.4661 169.248 81.1289 169.431 80.8555C169.613 80.5775 169.836 80.3542 170.101 80.1855C170.369 80.0169 170.659 79.8962 170.969 79.8232C171.279 79.7458 171.554 79.707 171.796 79.707H173.929V79.1465C173.929 78.6406 173.787 78.2874 173.505 78.0869C173.222 77.8864 172.817 77.7861 172.288 77.7861C172.033 77.7861 171.721 77.8226 171.352 77.8955C170.982 77.9639 170.611 78.1507 170.237 78.4561L169.622 77.5059C170.091 77.1413 170.565 76.9066 171.044 76.8018C171.527 76.6924 171.974 76.6377 172.384 76.6377C173.336 76.6377 174.04 76.8451 174.496 77.2598C174.956 77.6745 175.187 78.3125 175.187 79.1738V84H174.079L173.929 83.3232L173.888 83.2959C173.309 83.6195 172.835 83.8268 172.466 83.918C172.101 84.0091 171.771 84.0547 171.475 84.0547C170.773 84.0547 170.21 83.8587 169.786 83.4668C169.367 83.0749 169.157 82.5417 169.157 81.8672ZM170.449 81.8672C170.449 82.2227 170.568 82.487 170.805 82.6602C171.046 82.8333 171.354 82.9199 171.728 82.9199C171.914 82.9199 172.108 82.8949 172.309 82.8447C172.509 82.79 172.705 82.724 172.896 82.6465C173.088 82.569 173.272 82.4847 173.45 82.3936C173.628 82.2979 173.787 82.2113 173.929 82.1338V80.7461H172.008C171.848 80.7461 171.677 80.7598 171.495 80.7871C171.317 80.8145 171.149 80.8646 170.989 80.9375C170.834 81.0059 170.704 81.1175 170.6 81.2725C170.499 81.4274 170.449 81.6257 170.449 81.8672ZM176.615 84V76.7197H177.9V82.8789H180.443V76.7197H181.688V82.8789H184.244V76.7197H185.509V82.9062H186.11V85.8799H184.928V84H176.615ZM187.04 81.8672C187.04 81.4661 187.131 81.1289 187.313 80.8555C187.496 80.5775 187.719 80.3542 187.983 80.1855C188.252 80.0169 188.542 79.8962 188.852 79.8232C189.161 79.7458 189.437 79.707 189.679 79.707H191.812V79.1465C191.812 78.6406 191.67 78.2874 191.388 78.0869C191.105 77.8864 190.7 77.7861 190.171 77.7861C189.916 77.7861 189.604 77.8226 189.234 77.8955C188.865 77.9639 188.494 78.1507 188.12 78.4561L187.505 77.5059C187.974 77.1413 188.448 76.9066 188.927 76.8018C189.41 76.6924 189.856 76.6377 190.267 76.6377C191.219 76.6377 191.923 76.8451 192.379 77.2598C192.839 77.6745 193.069 78.3125 193.069 79.1738V84H191.962L191.812 83.3232L191.771 83.2959C191.192 83.6195 190.718 83.8268 190.349 83.918C189.984 84.0091 189.654 84.0547 189.357 84.0547C188.656 84.0547 188.093 83.8587 187.669 83.4668C187.25 83.0749 187.04 82.5417 187.04 81.8672ZM188.332 81.8672C188.332 82.2227 188.451 82.487 188.688 82.6602C188.929 82.8333 189.237 82.9199 189.61 82.9199C189.797 82.9199 189.991 82.8949 190.191 82.8447C190.392 82.79 190.588 82.724 190.779 82.6465C190.971 82.569 191.155 82.4847 191.333 82.3936C191.511 82.2979 191.67 82.2113 191.812 82.1338V80.7461H189.891C189.731 80.7461 189.56 80.7598 189.378 80.7871C189.2 80.8145 189.032 80.8646 188.872 80.9375C188.717 81.0059 188.587 81.1175 188.482 81.2725C188.382 81.4274 188.332 81.6257 188.332 81.8672ZM193.931 77.8408V76.7061H199.755V77.8408H197.485V84H196.18V77.8408H193.931ZM200.623 84V76.7061H201.895V79.543H203.815C204.23 79.543 204.595 79.5999 204.909 79.7139C205.228 79.8278 205.493 79.9827 205.702 80.1787C205.916 80.3701 206.076 80.6025 206.181 80.876C206.29 81.1449 206.345 81.4365 206.345 81.751C206.345 82.4255 206.126 82.9701 205.688 83.3848C205.256 83.7949 204.627 84 203.802 84H200.623ZM201.874 82.8789H203.774C204.194 82.8789 204.517 82.7855 204.745 82.5986C204.978 82.4072 205.094 82.1247 205.094 81.751C205.094 81.4821 204.991 81.2314 204.786 80.999C204.581 80.7666 204.244 80.6504 203.774 80.6504H201.874V82.8789Z" fill="black" fill-opacity="0.5"/>
    <path d="M62.74 62.02H57.6L56.62 65H54.2L59.02 51.22H61.34L66.16 65H63.68L62.74 62.02ZM58.26 60.04H62.08L61.26 57.46L60.2 53.96H60.12L59.1 57.32L58.26 60.04ZM67.6238 65V51.22H69.8838V62.96H76.9838V65H67.6238ZM81.7477 53.3V65H79.4477V53.3H75.6277V51.22H85.5477V53.3H81.7477ZM96.7773 59.9V63.7H95.0973V59.9H91.2973V58.28H95.0973V54.52H96.7773V58.28H100.577V59.9H96.7773Z" fill="#242424"/>
    <path fill-rule="evenodd" clip-rule="evenodd" d="M118.411 57.1074V62.1535C118.411 65.3772 115.788 68 112.564 68H111.438C108.214 68 105.591 65.3772 105.591 62.1535V57.1074H118.411Z" fill="#242424" fill-opacity="0.2"/>
    <path d="M112.799 53.6489V51.3746C112.799 50.9354 112.441 50.5781 112.002 50.5781C111.563 50.5781 111.206 50.9354 111.206 51.3746V53.6489C111.206 54.0879 111.563 54.4453 112.002 54.4453C112.441 54.4453 112.799 54.088 112.799 53.6489Z" fill="#242424"/>
    <path d="M110.247 53.6489V51.3746C110.247 50.5698 110.789 49.8908 111.527 49.6797V48H111.447C108.223 48 105.6 50.6226 105.6 53.8464V56.1402H111.527V55.3438C110.789 55.1327 110.247 54.4536 110.247 53.6489Z" fill="#242424" fill-opacity="0.2"/>
    <path d="M113.732 53.6489V51.3746C113.732 50.5698 113.189 49.8908 112.451 49.6797V48H112.532C115.756 48 118.378 50.6226 118.378 53.8464V56.1402H112.451V55.3438C113.189 55.1327 113.732 54.4536 113.732 53.6489Z" fill="#242424" fill-opacity="0.2"/>
    <path d="M154.74 62.02H149.6L148.62 65H146.2L151.02 51.22H153.34L158.16 65H155.68L154.74 62.02ZM150.26 60.04H154.08L153.26 57.46L152.2 53.96H152.12L151.1 57.32L150.26 60.04ZM159.624 65V51.22H161.884V62.96H168.984V65H159.624ZM173.748 53.3V65H171.448V53.3H167.628V51.22H177.548V53.3H173.748ZM188.777 59.9V63.7H187.097V59.9H183.297V58.28H187.097V54.52H188.777V58.28H192.577V59.9H188.777Z" fill="#242424"/>
    <path fill-rule="evenodd" clip-rule="evenodd" d="M210.411 57.1074V62.1535C210.411 65.3772 207.788 68 204.564 68H203.438C200.214 68 197.591 65.3772 197.591 62.1535V57.1074H210.411Z" fill="#242424" fill-opacity="0.2"/>
    <path d="M204.799 53.6489V51.3746C204.799 50.9354 204.441 50.5781 204.002 50.5781C203.563 50.5781 203.206 50.9354 203.206 51.3746V53.6489C203.206 54.0879 203.563 54.4453 204.002 54.4453C204.441 54.4453 204.799 54.088 204.799 53.6489Z" fill="#242424" fill-opacity="0.2"/>
    <path d="M202.247 53.6489V51.3746C202.247 50.5698 202.789 49.8908 203.527 49.6797V48H203.447C200.223 48 197.6 50.6226 197.6 53.8464V56.1402H203.527V55.3438C202.789 55.1327 202.247 54.4536 202.247 53.6489Z" fill="#242424" fill-opacity="0.2"/>
    <path d="M205.732 53.6489V51.3746C205.732 50.5698 205.189 49.8908 204.451 49.6797V48H204.532C207.756 48 210.378 50.6226 210.378 53.8464V56.1402H204.451V55.3438C205.189 55.1327 205.732 54.4536 205.732 53.6489Z" fill="#242424"/>
    <path d="M53.414 28.34V31.042C53.414 31.4433 53.4467 31.7933 53.512 32.092C53.5867 32.3907 53.7033 32.638 53.862 32.834C54.0207 33.03 54.2307 33.1793 54.492 33.282C54.7627 33.3753 55.0893 33.422 55.472 33.422C55.9293 33.422 56.4007 33.338 56.886 33.17C57.3807 33.002 57.796 32.7967 58.132 32.554V28.34H59.126V37.986H58.132V33.562C57.7213 33.8233 57.2687 34.0193 56.774 34.15C56.2793 34.2807 55.8313 34.346 55.43 34.346C54.3753 34.346 53.61 34.08 53.134 33.548C52.658 33.016 52.42 32.2367 52.42 31.21V28.34H53.414ZM63.3034 31.924V38H62.3514V31.924H60.1114V31.084H65.5434V31.924H63.3034ZM71.9569 35.564C71.9569 35.956 71.8869 36.3107 71.7469 36.628C71.6069 36.936 71.4109 37.1973 71.1589 37.412C70.9069 37.6267 70.6082 37.79 70.2629 37.902C69.9269 38.014 69.5582 38.07 69.1569 38.07C68.7556 38.07 68.3822 38.014 68.0369 37.902C67.7009 37.79 67.4069 37.6267 67.1549 37.412C66.9122 37.188 66.7209 36.922 66.5809 36.614C66.4409 36.306 66.3709 35.956 66.3709 35.564V33.52C66.3709 33.128 66.4456 32.778 66.5949 32.47C66.7442 32.162 66.9449 31.9007 67.1969 31.686C67.4489 31.4713 67.7429 31.308 68.0789 31.196C68.4242 31.0747 68.7882 31.014 69.1709 31.014C69.5722 31.014 69.9409 31.0747 70.2769 31.196C70.6222 31.308 70.9162 31.4713 71.1589 31.686C71.4109 31.9007 71.6069 32.162 71.7469 32.47C71.8869 32.778 71.9569 33.128 71.9569 33.52V35.564ZM71.0469 33.716C71.0469 33.38 70.9909 33.0953 70.8789 32.862C70.7669 32.6287 70.6176 32.4373 70.4309 32.288C70.2536 32.1387 70.0529 32.0313 69.8289 31.966C69.6142 31.9007 69.3996 31.868 69.1849 31.868C68.9609 31.868 68.7369 31.9007 68.5129 31.966C68.2889 32.0313 68.0836 32.1387 67.8969 32.288C67.7196 32.4373 67.5749 32.6287 67.4629 32.862C67.3509 33.0953 67.2949 33.38 67.2949 33.716V35.368C67.2949 35.704 67.3462 35.9933 67.4489 36.236C67.5516 36.4693 67.6869 36.6607 67.8549 36.81C68.0322 36.9593 68.2329 37.0667 68.4569 37.132C68.6902 37.1973 68.9329 37.23 69.1849 37.23C69.4182 37.23 69.6422 37.1973 69.8569 37.132C70.0809 37.0573 70.2816 36.95 70.4589 36.81C70.6362 36.6607 70.7762 36.4693 70.8789 36.236C70.9909 35.9933 71.0469 35.704 71.0469 35.368V33.716ZM78.8475 35.522C78.8475 35.914 78.7775 36.2687 78.6375 36.586C78.4975 36.9033 78.3015 37.174 78.0495 37.398C77.7975 37.6127 77.4988 37.7807 77.1535 37.902C76.8082 38.014 76.4348 38.07 76.0335 38.07C75.1282 38.07 74.4375 37.8413 73.9615 37.384C73.4948 36.9267 73.2615 36.292 73.2615 35.48V33.646C73.2615 32.918 73.3128 32.2273 73.4155 31.574C73.5275 30.9207 73.7702 30.328 74.1435 29.796C74.3115 29.5533 74.5075 29.348 74.7315 29.18C74.9555 29.012 75.1935 28.8673 75.4455 28.746C75.6975 28.6153 75.9542 28.5033 76.2155 28.41C76.4862 28.3073 76.7522 28.2047 77.0135 28.102C77.2095 28.0273 77.4008 27.9527 77.5875 27.878C77.7742 27.8033 77.9888 27.71 78.2315 27.598L78.5535 28.368C78.1522 28.5733 77.8162 28.7273 77.5455 28.83C77.2842 28.9327 77.0275 29.0353 76.7755 29.138C76.5608 29.222 76.3555 29.306 76.1595 29.39C75.9635 29.4647 75.7768 29.558 75.5995 29.67C75.4222 29.782 75.2542 29.9173 75.0955 30.076C74.9462 30.2253 74.8108 30.412 74.6895 30.636C74.5588 30.8787 74.4562 31.1447 74.3815 31.434C74.3068 31.714 74.2602 31.9847 74.2415 32.246C74.3628 32.0873 74.5028 31.952 74.6615 31.84C74.8295 31.728 75.0022 31.6393 75.1795 31.574C75.3662 31.4993 75.5482 31.448 75.7255 31.42C75.9028 31.3827 76.0615 31.364 76.2015 31.364C77.0508 31.364 77.7042 31.5833 78.1615 32.022C78.6188 32.4607 78.8475 33.0767 78.8475 33.87V35.522ZM77.9375 34.066C77.9375 33.394 77.7602 32.918 77.4055 32.638C77.0602 32.358 76.6122 32.218 76.0615 32.218C75.8375 32.218 75.6135 32.2553 75.3895 32.33C75.1748 32.4047 74.9742 32.5213 74.7875 32.68C74.6102 32.8387 74.4655 33.0393 74.3535 33.282C74.2415 33.5247 74.1855 33.814 74.1855 34.15V35.382C74.1855 35.718 74.2322 36.0027 74.3255 36.236C74.4188 36.4693 74.5495 36.6607 74.7175 36.81C74.8855 36.9593 75.0815 37.0667 75.3055 37.132C75.5388 37.1973 75.7908 37.23 76.0615 37.23C76.3228 37.23 76.5655 37.1973 76.7895 37.132C77.0228 37.0573 77.2235 36.95 77.3915 36.81C77.5595 36.6607 77.6902 36.4693 77.7835 36.236C77.8862 36.0027 77.9375 35.718 77.9375 35.382V34.066ZM86.1998 38V31.098H87.0818V38H86.1998ZM84.5618 35.97C84.5618 35.6527 84.4498 35.3773 84.2258 35.144C84.0018 34.9013 83.6425 34.78 83.1478 34.78H81.1178V37.174H83.1478C83.5958 37.174 83.9411 37.076 84.1838 36.88C84.4358 36.6747 84.5618 36.3713 84.5618 35.97ZM81.1178 33.968H83.2038C83.5958 33.968 83.9318 34.024 84.2118 34.136C84.5011 34.2387 84.7391 34.3833 84.9258 34.57C85.1218 34.7473 85.2618 34.9573 85.3458 35.2C85.4391 35.4427 85.4858 35.6993 85.4858 35.97C85.4858 36.6047 85.2805 37.104 84.8698 37.468C84.4591 37.8227 83.8805 38 83.1338 38H80.2078V31.084H81.1178V33.968ZM92.5625 36.558C92.6372 36.446 92.7398 36.2967 92.8705 36.11C93.0012 35.914 93.1365 35.7133 93.2765 35.508C93.4258 35.2933 93.5658 35.0927 93.6965 34.906C93.8272 34.71 93.9298 34.556 94.0045 34.444L96.3005 31.098H97.1685V38H96.2445V32.554H96.1885C96.1138 32.666 96.0112 32.82 95.8805 33.016C95.7498 33.2027 95.6145 33.4033 95.4745 33.618C95.3345 33.8327 95.1945 34.038 95.0545 34.234C94.9238 34.4207 94.8212 34.57 94.7465 34.682C94.6812 34.766 94.5878 34.8967 94.4665 35.074C94.3452 35.2513 94.2098 35.4473 94.0605 35.662C93.9205 35.8767 93.7665 36.1053 93.5985 36.348C93.4398 36.5813 93.2858 36.8053 93.1365 37.02C92.9872 37.2347 92.8518 37.4307 92.7305 37.608C92.6092 37.7853 92.5205 37.916 92.4645 38H91.5965V31.098H92.5205V36.558H92.5625ZM101.257 31C101.639 31 102.027 31.0513 102.419 31.154C102.82 31.2567 103.17 31.462 103.469 31.77L102.909 32.47C102.619 32.218 102.335 32.0547 102.055 31.98C101.784 31.9053 101.537 31.868 101.313 31.868C101.098 31.868 100.879 31.9007 100.655 31.966C100.44 32.0313 100.244 32.1387 100.067 32.288C99.8895 32.428 99.7448 32.6193 99.6328 32.862C99.5301 33.0953 99.4788 33.38 99.4788 33.716V35.368C99.4788 35.704 99.5301 35.9887 99.6328 36.222C99.7448 36.4553 99.8848 36.6467 100.053 36.796C100.23 36.936 100.426 37.0433 100.641 37.118C100.865 37.1833 101.089 37.216 101.313 37.216C101.527 37.216 101.789 37.174 102.097 37.09C102.405 37.006 102.666 36.866 102.881 36.67L103.455 37.328C103.147 37.5987 102.801 37.79 102.419 37.902C102.045 38.014 101.667 38.07 101.285 38.07C100.874 38.07 100.501 38.0093 100.165 37.888C99.8288 37.7667 99.5395 37.5987 99.2968 37.384C99.0635 37.16 98.8815 36.8987 98.7508 36.6C98.6201 36.292 98.5548 35.956 98.5548 35.592V33.534C98.5548 33.1513 98.6248 32.806 98.7648 32.498C98.9048 32.1807 99.0961 31.9147 99.3388 31.7C99.5908 31.476 99.8801 31.3033 100.207 31.182C100.533 31.0607 100.883 31 101.257 31ZM109.082 38V31.924H105.358V38H104.448V31.098H110.006V38H109.082ZM116.91 35.564C116.91 35.956 116.84 36.3107 116.7 36.628C116.56 36.936 116.364 37.1973 116.112 37.412C115.86 37.6267 115.561 37.79 115.216 37.902C114.88 38.014 114.511 38.07 114.11 38.07C113.709 38.07 113.335 38.014 112.99 37.902C112.654 37.79 112.36 37.6267 112.108 37.412C111.865 37.188 111.674 36.922 111.534 36.614C111.394 36.306 111.324 35.956 111.324 35.564V33.52C111.324 33.128 111.399 32.778 111.548 32.47C111.697 32.162 111.898 31.9007 112.15 31.686C112.402 31.4713 112.696 31.308 113.032 31.196C113.377 31.0747 113.741 31.014 114.124 31.014C114.525 31.014 114.894 31.0747 115.23 31.196C115.575 31.308 115.869 31.4713 116.112 31.686C116.364 31.9007 116.56 32.162 116.7 32.47C116.84 32.778 116.91 33.128 116.91 33.52V35.564ZM116 33.716C116 33.38 115.944 33.0953 115.832 32.862C115.72 32.6287 115.571 32.4373 115.384 32.288C115.207 32.1387 115.006 32.0313 114.782 31.966C114.567 31.9007 114.353 31.868 114.138 31.868C113.914 31.868 113.69 31.9007 113.466 31.966C113.242 32.0313 113.037 32.1387 112.85 32.288C112.673 32.4373 112.528 32.6287 112.416 32.862C112.304 33.0953 112.248 33.38 112.248 33.716V35.368C112.248 35.704 112.299 35.9933 112.402 36.236C112.505 36.4693 112.64 36.6607 112.808 36.81C112.985 36.9593 113.186 37.0667 113.41 37.132C113.643 37.1973 113.886 37.23 114.138 37.23C114.371 37.23 114.595 37.1973 114.81 37.132C115.034 37.0573 115.235 36.95 115.412 36.81C115.589 36.6607 115.729 36.4693 115.832 36.236C115.944 35.9933 116 35.704 116 35.368V33.716ZM119.979 31.924V34.164C119.979 34.808 119.932 35.354 119.839 35.802C119.745 36.25 119.61 36.628 119.433 36.936C119.255 37.244 119.045 37.496 118.803 37.692C118.56 37.888 118.294 38.0607 118.005 38.21L117.613 37.482C117.855 37.3513 118.065 37.2113 118.243 37.062C118.429 36.9033 118.583 36.698 118.705 36.446C118.835 36.194 118.929 35.8767 118.985 35.494C119.05 35.102 119.083 34.6073 119.083 34.01V31.112H123.703V38H122.793V31.924H119.979ZM129.556 35.97C129.556 35.6527 129.444 35.3773 129.22 35.144C128.996 34.9013 128.637 34.78 128.142 34.78H126.112V37.174H128.142C128.59 37.174 128.935 37.076 129.178 36.88C129.43 36.6747 129.556 36.3713 129.556 35.97ZM126.112 33.968H128.198C128.59 33.968 128.926 34.024 129.206 34.136C129.495 34.2387 129.733 34.3833 129.92 34.57C130.116 34.7473 130.256 34.9573 130.34 35.2C130.433 35.4427 130.48 35.6993 130.48 35.97C130.48 36.6047 130.275 37.104 129.864 37.468C129.453 37.8227 128.875 38 128.128 38H125.202V31.084H126.112V33.968ZM131.437 36.628C131.68 36.824 131.965 36.978 132.291 37.09C132.618 37.202 132.94 37.258 133.257 37.258C133.817 37.258 134.247 37.1367 134.545 36.894C134.853 36.642 135.007 36.348 135.007 36.012C135.007 35.62 134.872 35.326 134.601 35.13C134.331 34.934 134.009 34.836 133.635 34.836H132.683V34.066H133.649C133.985 34.066 134.284 33.968 134.545 33.772C134.807 33.576 134.937 33.3007 134.937 32.946C134.937 32.7593 134.891 32.6007 134.797 32.47C134.713 32.33 134.601 32.218 134.461 32.134C134.321 32.0407 134.158 31.9753 133.971 31.938C133.794 31.8913 133.617 31.868 133.439 31.868C133.141 31.868 132.837 31.9147 132.529 32.008C132.221 32.1013 131.951 32.2413 131.717 32.428C131.699 32.4093 131.661 32.372 131.605 32.316C131.549 32.2507 131.489 32.1853 131.423 32.12C131.358 32.0453 131.297 31.9753 131.241 31.91C131.185 31.8447 131.153 31.8027 131.143 31.784C131.489 31.504 131.862 31.308 132.263 31.196C132.674 31.0747 133.089 31.014 133.509 31.014C134.237 31.014 134.807 31.1913 135.217 31.546C135.628 31.8913 135.833 32.3347 135.833 32.876C135.833 32.9973 135.815 33.1327 135.777 33.282C135.749 33.4313 135.698 33.576 135.623 33.716C135.549 33.856 135.441 33.9867 135.301 34.108C135.171 34.2293 135.003 34.3273 134.797 34.402C135.021 34.486 135.203 34.598 135.343 34.738C135.493 34.8687 135.605 35.0087 135.679 35.158C135.763 35.298 135.819 35.4427 135.847 35.592C135.885 35.7413 135.903 35.872 135.903 35.984C135.903 36.6 135.67 37.0993 135.203 37.482C134.746 37.8647 134.111 38.056 133.299 38.056C132.329 38.056 131.521 37.7947 130.877 37.272L131.437 36.628ZM142.791 35.564C142.791 35.956 142.721 36.3107 142.581 36.628C142.441 36.936 142.245 37.1973 141.993 37.412C141.741 37.6267 141.442 37.79 141.097 37.902C140.761 38.014 140.392 38.07 139.991 38.07C139.59 38.07 139.216 38.014 138.871 37.902C138.535 37.79 138.241 37.6267 137.989 37.412C137.746 37.188 137.555 36.922 137.415 36.614C137.275 36.306 137.205 35.956 137.205 35.564V33.52C137.205 33.128 137.28 32.778 137.429 32.47C137.578 32.162 137.779 31.9007 138.031 31.686C138.283 31.4713 138.577 31.308 138.913 31.196C139.258 31.0747 139.622 31.014 140.005 31.014C140.406 31.014 140.775 31.0747 141.111 31.196C141.456 31.308 141.75 31.4713 141.993 31.686C142.245 31.9007 142.441 32.162 142.581 32.47C142.721 32.778 142.791 33.128 142.791 33.52V35.564ZM141.881 33.716C141.881 33.38 141.825 33.0953 141.713 32.862C141.601 32.6287 141.452 32.4373 141.265 32.288C141.088 32.1387 140.887 32.0313 140.663 31.966C140.448 31.9007 140.234 31.868 140.019 31.868C139.795 31.868 139.571 31.9007 139.347 31.966C139.123 32.0313 138.918 32.1387 138.731 32.288C138.554 32.4373 138.409 32.6287 138.297 32.862C138.185 33.0953 138.129 33.38 138.129 33.716V35.368C138.129 35.704 138.18 35.9933 138.283 36.236C138.386 36.4693 138.521 36.6607 138.689 36.81C138.866 36.9593 139.067 37.0667 139.291 37.132C139.524 37.1973 139.767 37.23 140.019 37.23C140.252 37.23 140.476 37.1973 140.691 37.132C140.915 37.0573 141.116 36.95 141.293 36.81C141.47 36.6607 141.61 36.4693 141.713 36.236C141.825 35.9933 141.881 35.704 141.881 35.368V33.716ZM149.5 35.984C149.5 36.236 149.453 36.4833 149.36 36.726C149.276 36.9687 149.145 37.188 148.968 37.384C148.79 37.5707 148.566 37.72 148.296 37.832C148.034 37.944 147.726 38 147.372 38H144.082V31.098H147.302C147.666 31.098 147.978 31.1493 148.24 31.252C148.501 31.3547 148.716 31.49 148.884 31.658C149.052 31.826 149.178 32.022 149.262 32.246C149.346 32.47 149.388 32.7033 149.388 32.946C149.388 33.2073 149.318 33.4733 149.178 33.744C149.047 34.0053 148.804 34.2153 148.45 34.374C148.646 34.458 148.809 34.5607 148.94 34.682C149.07 34.8033 149.178 34.9387 149.262 35.088C149.346 35.2373 149.406 35.3913 149.444 35.55C149.481 35.6993 149.5 35.844 149.5 35.984ZM148.576 35.984C148.576 35.8067 148.538 35.648 148.464 35.508C148.389 35.3587 148.291 35.2327 148.17 35.13C148.058 35.0273 147.922 34.948 147.764 34.892C147.614 34.836 147.456 34.808 147.288 34.808H145.006V37.188H147.204C147.633 37.188 147.969 37.0853 148.212 36.88C148.454 36.6747 148.576 36.376 148.576 35.984ZM148.45 32.96C148.45 32.7733 148.412 32.6147 148.338 32.484C148.263 32.3533 148.165 32.246 148.044 32.162C147.932 32.078 147.796 32.0173 147.638 31.98C147.488 31.9427 147.33 31.924 147.162 31.924H145.006V33.968H147.232C147.568 33.968 147.852 33.884 148.086 33.716C148.328 33.548 148.45 33.296 148.45 32.96ZM155.193 37.244C154.586 37.5987 154.091 37.8273 153.709 37.93C153.326 38.0233 152.999 38.07 152.729 38.07C152.075 38.07 151.548 37.8973 151.147 37.552C150.745 37.1973 150.545 36.698 150.545 36.054C150.545 35.6807 150.624 35.368 150.783 35.116C150.951 34.8547 151.156 34.6447 151.399 34.486C151.641 34.3273 151.903 34.2153 152.183 34.15C152.463 34.0753 152.724 34.038 152.967 34.038H155.221V33.422C155.221 32.8807 155.071 32.484 154.773 32.232C154.483 31.98 154.049 31.854 153.471 31.854C153.181 31.854 152.864 31.896 152.519 31.98C152.173 32.0547 151.823 32.2273 151.469 32.498L151.007 31.798C151.427 31.49 151.847 31.2847 152.267 31.182C152.696 31.07 153.121 31.014 153.541 31.014C154.465 31.014 155.127 31.2193 155.529 31.63C155.93 32.0407 156.131 32.6287 156.131 33.394V38H155.347L155.221 37.258L155.193 37.244ZM155.221 34.808H153.177C153.009 34.808 152.827 34.822 152.631 34.85C152.435 34.8687 152.253 34.9247 152.085 35.018C151.917 35.102 151.777 35.228 151.665 35.396C151.553 35.5547 151.497 35.774 151.497 36.054C151.497 36.4647 151.632 36.768 151.903 36.964C152.173 37.1507 152.505 37.244 152.897 37.244C153.083 37.244 153.279 37.216 153.485 37.16C153.69 37.104 153.895 37.034 154.101 36.95C154.306 36.866 154.502 36.7727 154.689 36.67C154.885 36.5673 155.062 36.4693 155.221 36.376V34.808ZM160.155 31.924V38H159.203V31.924H156.963V31.084H162.395V31.924H160.155ZM167.618 35.97C167.618 35.6527 167.506 35.3773 167.282 35.144C167.058 34.9013 166.699 34.78 166.204 34.78H164.174V37.174H166.204C166.652 37.174 166.998 37.076 167.24 36.88C167.492 36.6747 167.618 36.3713 167.618 35.97ZM164.174 33.968H166.26C166.652 33.968 166.988 34.024 167.268 34.136C167.558 34.2387 167.796 34.3833 167.982 34.57C168.178 34.7473 168.318 34.9573 168.402 35.2C168.496 35.4427 168.542 35.6993 168.542 35.97C168.542 36.6047 168.337 37.104 167.926 37.468C167.516 37.8227 166.937 38 166.19 38H163.264V31.084H164.174V33.968ZM172.673 38V31.084H173.597V34.094H175.095C175.226 34.094 175.352 34.0847 175.473 34.066C175.604 34.0473 175.725 34.0053 175.837 33.94C175.958 33.8653 176.066 33.7627 176.159 33.632C176.262 33.5013 176.35 33.3287 176.425 33.114L177.153 31.084H178.091L177.377 33.072C177.256 33.408 177.125 33.6927 176.985 33.926C176.845 34.15 176.64 34.2993 176.369 34.374C176.696 34.4487 176.929 34.612 177.069 34.864C177.209 35.1067 177.34 35.4007 177.461 35.746L178.217 38H177.251L176.579 35.956C176.504 35.732 176.42 35.5547 176.327 35.424C176.243 35.284 176.145 35.1767 176.033 35.102C175.921 35.018 175.795 34.9667 175.655 34.948C175.524 34.92 175.38 34.906 175.221 34.906H173.597V38H172.673ZM183.699 37.244C183.092 37.5987 182.597 37.8273 182.215 37.93C181.832 38.0233 181.505 38.07 181.235 38.07C180.581 38.07 180.054 37.8973 179.653 37.552C179.251 37.1973 179.051 36.698 179.051 36.054C179.051 35.6807 179.13 35.368 179.289 35.116C179.457 34.8547 179.662 34.6447 179.905 34.486C180.147 34.3273 180.409 34.2153 180.689 34.15C180.969 34.0753 181.23 34.038 181.473 34.038H183.727V33.422C183.727 32.8807 183.577 32.484 183.279 32.232C182.989 31.98 182.555 31.854 181.977 31.854C181.687 31.854 181.37 31.896 181.025 31.98C180.679 32.0547 180.329 32.2273 179.975 32.498L179.513 31.798C179.933 31.49 180.353 31.2847 180.773 31.182C181.202 31.07 181.627 31.014 182.047 31.014C182.971 31.014 183.633 31.2193 184.035 31.63C184.436 32.0407 184.637 32.6287 184.637 33.394V38H183.853L183.727 37.258L183.699 37.244ZM183.727 34.808H181.683C181.515 34.808 181.333 34.822 181.137 34.85C180.941 34.8687 180.759 34.9247 180.591 35.018C180.423 35.102 180.283 35.228 180.171 35.396C180.059 35.5547 180.003 35.774 180.003 36.054C180.003 36.4647 180.138 36.768 180.409 36.964C180.679 37.1507 181.011 37.244 181.403 37.244C181.589 37.244 181.785 37.216 181.991 37.16C182.196 37.104 182.401 37.034 182.607 36.95C182.812 36.866 183.008 36.7727 183.195 36.67C183.391 36.5673 183.568 36.4693 183.727 36.376V34.808ZM191.867 33.058C191.82 33.142 191.755 33.268 191.671 33.436C191.587 33.5947 191.493 33.7627 191.391 33.94C191.297 34.1173 191.209 34.29 191.125 34.458C191.041 34.6167 190.975 34.7427 190.929 34.836L189.739 36.964H189.081L188.241 35.452L186.981 33.1H186.953V38H186.015V31.098H186.883L188.395 33.912C188.404 33.94 188.46 34.052 188.563 34.248C188.675 34.444 188.791 34.6587 188.913 34.892C189.034 35.1253 189.146 35.34 189.249 35.536C189.351 35.732 189.412 35.844 189.431 35.872L190.467 33.926C190.532 33.8047 190.635 33.6133 190.775 33.352C190.924 33.0907 191.078 32.8153 191.237 32.526C191.395 32.2273 191.545 31.9473 191.685 31.686C191.834 31.4247 191.941 31.2287 192.007 31.098H192.833V38H191.909V33.058H191.867ZM195.155 34.906V35.452C195.155 35.7787 195.206 36.0587 195.309 36.292C195.421 36.516 195.565 36.7027 195.743 36.852C195.92 36.992 196.121 37.0947 196.345 37.16C196.578 37.2253 196.821 37.258 197.073 37.258C197.371 37.258 197.675 37.202 197.983 37.09C198.3 36.978 198.594 36.796 198.865 36.544L199.439 37.174C199.112 37.5007 198.743 37.734 198.333 37.874C197.922 38.0047 197.493 38.07 197.045 38.07C196.653 38.07 196.284 38.0187 195.939 37.916C195.603 37.8133 195.309 37.6593 195.057 37.454C194.805 37.2393 194.604 36.9733 194.455 36.656C194.305 36.3387 194.231 35.97 194.231 35.55V33.674C194.231 33.2727 194.296 32.9087 194.427 32.582C194.567 32.246 194.758 31.966 195.001 31.742C195.243 31.5087 195.533 31.3313 195.869 31.21C196.205 31.0793 196.573 31.014 196.975 31.014C197.376 31.014 197.74 31.0747 198.067 31.196C198.403 31.3173 198.687 31.4947 198.921 31.728C199.163 31.952 199.35 32.2227 199.481 32.54C199.611 32.8573 199.677 33.212 199.677 33.604V34.906H195.155ZM198.753 33.716C198.753 33.38 198.701 33.0953 198.599 32.862C198.505 32.6287 198.375 32.4373 198.207 32.288C198.039 32.1387 197.847 32.0313 197.633 31.966C197.418 31.8913 197.199 31.854 196.975 31.854C196.741 31.854 196.513 31.8913 196.289 31.966C196.074 32.0407 195.883 32.1527 195.715 32.302C195.547 32.4513 195.411 32.6427 195.309 32.876C195.206 33.1 195.155 33.3707 195.155 33.688V34.136H198.753V33.716ZM201.687 31.112L201.813 31.924C202.112 31.7373 202.382 31.5833 202.625 31.462C202.868 31.3407 203.082 31.2473 203.269 31.182C203.465 31.1167 203.638 31.0747 203.787 31.056C203.936 31.028 204.076 31.014 204.207 31.014C204.879 31.014 205.42 31.21 205.831 31.602C206.251 31.994 206.461 32.6053 206.461 33.436V35.648C206.461 36.432 206.246 37.034 205.817 37.454C205.388 37.874 204.795 38.084 204.039 38.084C203.768 38.084 203.456 38.056 203.101 38C202.756 37.944 202.326 37.7947 201.813 37.552V40.8H200.903V31.112H201.687ZM201.813 36.656C202.289 36.8707 202.69 37.02 203.017 37.104C203.344 37.188 203.656 37.23 203.955 37.23C204.44 37.23 204.823 37.104 205.103 36.852C205.392 36.5907 205.537 36.1567 205.537 35.55V33.548C205.537 32.9413 205.411 32.5167 205.159 32.274C204.907 32.0313 204.566 31.91 204.137 31.91C203.997 31.91 203.829 31.9333 203.633 31.98C203.446 32.0267 203.25 32.092 203.045 32.176C202.84 32.26 202.63 32.3627 202.415 32.484C202.21 32.596 202.009 32.7173 201.813 32.848V36.656ZM208.69 40.8L209.712 37.916L209.222 37.468L207.22 31.098H208.2C208.246 31.2287 208.312 31.4433 208.396 31.742C208.489 32.0313 208.582 32.3393 208.676 32.666C208.769 32.9833 208.858 33.2913 208.942 33.59C209.035 33.8793 209.105 34.0893 209.152 34.22L210.062 37.16H210.09L211.14 34.22C211.186 34.0893 211.261 33.8793 211.364 33.59C211.476 33.2913 211.588 32.9833 211.7 32.666C211.812 32.3393 211.919 32.0313 212.022 31.742C212.124 31.4433 212.199 31.2287 212.246 31.098H213.226C213.123 31.3687 212.978 31.7607 212.792 32.274C212.614 32.778 212.409 33.3473 212.176 33.982C211.942 34.6073 211.7 35.2653 211.448 35.956C211.196 36.6373 210.953 37.2953 210.72 37.93C210.496 38.5553 210.29 39.12 210.104 39.624C209.917 40.1373 209.777 40.5293 209.684 40.8H208.69Z" fill="#242424"/>
    <defs>
        <filter id="filter0_d_1868_2" x="0" y="0" width="242" height="131" filterUnits="userSpaceOnUse" color-interpolation-filters="sRGB">
            <feFlood flood-opacity="0" result="BackgroundImageFix"/>
            <feColorMatrix in="SourceAlpha" type="matrix" values="0 0 0 0 0 0 0 0 0 0 0 0 0 0 0 0 0 0 127 0" result="hardAlpha"/>
            <feMorphology radius="3" operator="dilate" in="SourceAlpha" result="effect1_dropShadow_1868_2"/>
            <feOffset dy="10"/>
            <feGaussianBlur stdDeviation="7.5"/>
            <feComposite in2="hardAlpha" operator="out"/>
            <feColorMatrix type="matrix" values="0 0 0 0 0.241667 0 0 0 0 0.241667 0 0 0 0 0.241667 0 0 0 0.07 0"/>
            <feBlend mode="normal" in2="BackgroundImageFix" result="effect1_dropShadow_1868_2"/>
            <feBlend mode="normal" in="SourceGraphic" in2="effect1_dropShadow_1868_2" result="shape"/>
        </filter>
    </defs>
</svg>
