<svg viewBox="0 0 34 34" fill="none" xmlns="http://www.w3.org/2000/svg">
    <path d="M14.8387 18.0344C19.8167 18.0344 23.8546 13.9951 23.8546 9.02217C23.8546 4.03994 19.8175 0 14.8387 0C9.85733 0 5.8252 4.04068 5.8252 9.02217C5.8252 13.9951 9.85658 18.0344 14.8387 18.0344Z" fill="white" fill-opacity="0.5"/>
    <path d="M26.2338 20.5089C25.7577 19.4891 25.1579 18.4637 24.3919 17.4851C23.9797 16.9607 23.2279 16.3851 22.5009 15.9907C20.6163 18.1027 17.8847 19.4401 14.8389 19.4401C11.7953 19.4401 9.06429 18.1027 7.18184 15.9957C6.47125 16.3993 5.73926 16.9749 5.34064 17.4979C4.0472 19.1856 2.05113 22.456 1.73269 26.8646C1.66589 27.7948 2.10865 29.2153 2.88605 29.7576C4.36133 30.7902 7.54353 32.1113 14.1694 32.1113C16.4633 32.1113 18.3962 31.9698 20.03 31.7496C19.3705 30.6373 18.9847 29.3441 18.9847 27.9597C18.9839 23.917 22.2181 20.6225 26.2338 20.5089Z" fill="white" fill-opacity="0.5"/>
    <path d="M26.2339 21.9189C22.8983 21.9189 20.1936 24.6236 20.1936 27.9593C20.1936 31.2949 22.8983 33.9996 26.2339 33.9996C29.5697 33.9996 32.2742 31.2949 32.2742 27.9593C32.2742 24.623 29.5703 21.9189 26.2339 21.9189ZM25.966 31.7384C25.3712 31.7384 25.0635 31.3561 25.0635 30.8892C25.0635 30.4543 25.4031 30.0614 25.934 30.0614C26.5174 30.0614 26.8365 30.4116 26.8365 30.8892C26.8358 31.3242 26.5281 31.7384 25.966 31.7384ZM27.059 27.8734C26.7299 28.0866 26.6134 28.3409 26.6134 28.7232V29.4772H25.2866C25.244 29.1688 25.18 28.5641 25.18 28.299C25.18 27.3538 25.6575 27.12 26.1677 26.8017C26.5074 26.5885 26.7618 26.4087 26.7618 26.0264C26.7618 25.6234 26.5174 25.4428 26.1358 25.4428C25.8174 25.4428 25.4883 25.5275 25.2226 25.6021L24.9782 24.4338C25.2539 24.3173 25.902 24.1794 26.4641 24.1794C28.2371 24.1794 28.4922 25.2411 28.4922 25.7826C28.4922 26.887 27.9188 27.3112 27.059 27.8734Z" fill="white" fill-opacity="0.25"/>
</svg>
