<svg viewBox="0 0 34 34" fill="none" xmlns="http://www.w3.org/2000/svg">
<g clip-path="url(#clip0_1_3517)">
<path d="M21.1262 30.4479H3.30099V24.8363C3.30498 22.1031 5.51923 19.8888 8.25244 19.8848H14.7421H15.0722C20.4938 19.9073 24.9078 15.5308 24.9302 10.1087C24.9527 4.68651 20.5762 0.273811 15.1541 0.250701C9.73197 0.227592 5.31921 4.60529 5.2961 10.0268C5.28621 12.4425 6.16689 14.7769 7.77053 16.5838C3.40332 16.8427 -0.00398088 20.4618 3.49079e-06 24.8363V32.0984C3.49079e-06 33.0102 0.738773 33.7489 1.65046 33.7489H21.1262C22.038 33.7489 22.7767 33.0101 22.7767 32.0984C22.7767 31.1867 22.038 30.4479 21.1262 30.4479ZM15.0722 3.64406C18.6479 3.74639 21.4636 6.72717 21.3612 10.3027C21.2655 13.6632 18.6135 16.3917 15.2571 16.5838H14.7421C11.1725 16.3594 8.46036 13.2835 8.68481 9.71386C8.89744 6.33039 11.6828 3.6837 15.0722 3.64406Z" fill="white" fill-opacity="0.5"/>
<path fill-rule="evenodd" clip-rule="evenodd" d="M25.7484 29.7884C25.7484 30.7001 26.4871 31.4389 27.3988 31.4389C28.3105 31.4389 29.0493 30.7001 29.0493 29.7883V26.4869H32.3498C33.2615 26.4869 34.0002 25.7481 34.0002 24.8364C34.0002 23.9247 33.2615 23.186 32.3497 23.186H29.0493V19.8854C29.0493 18.9738 28.3105 18.235 27.3988 18.235C26.4872 18.235 25.7484 18.9737 25.7484 19.8854V23.186H22.4468C21.5352 23.186 20.7964 23.9247 20.7964 24.8364C20.7964 25.7481 21.5351 26.4869 22.4468 26.4869H25.7484V29.7884Z" fill="white" fill-opacity="0.2"/>
</g>
<defs>
<clipPath id="clip0_1_3517">
<rect width="34" height="34" fill="white"/>
</clipPath>
</defs>
</svg>
