<svg viewBox="0 0 34 34" fill="none" xmlns="http://www.w3.org/2000/svg">
    <path d="M17.0113 8.5C20.6875 8.5 23.1171 10.2892 24.9205 12.3618L25.2719 12.7769C25.388 12.92 25.5042 13.0603 25.6147 13.2019C26.2295 14.008 26.7608 14.8254 27.2722 15.5734C27.6122 16.0777 27.9309 16.5552 28.2483 17.0014L28.5699 17.4548C28.6747 17.6035 28.7795 17.7537 28.9099 17.8939C30.2245 19.5528 31.5859 20.5856 33.5608 20.7145C33.837 19.5174 33.9872 18.2764 33.9872 17.0014C33.9872 15.7264 33.8384 14.4854 33.5608 13.2883C31.5845 13.4172 30.2245 14.4486 28.8844 16.1089C28.6294 15.7604 28.3786 15.3864 28.0981 14.9812C27.5669 14.1794 26.952 13.2699 26.2281 12.3675C27.6533 10.7114 29.4156 9.28625 31.7984 8.74508C28.975 3.5275 23.4075 0 17.0113 0C10.6363 0 5.05461 3.5275 2.15045 8.74508C4.53186 9.28908 6.29136 10.7114 7.71936 12.3661C7.8412 12.4936 7.95736 12.6211 8.07211 12.7698L8.40786 13.1948C9.08645 14.0661 9.7027 14.9586 10.2566 15.8086L11.0429 16.9787L11.3829 17.4448C11.4877 17.5922 11.6166 17.7423 11.7214 17.8911C13.2104 19.9297 14.7177 21.3336 17.0339 21.3336C19.3714 21.3336 20.8604 19.9311 22.3677 17.8911L22.8989 18.6773C23.5379 19.6123 24.2193 20.6323 24.9602 21.5886C23.1568 23.6725 20.7102 25.4561 17.0339 25.4561C13.3591 25.4561 10.9366 23.6498 9.13036 21.5886L8.79036 21.1636L8.45036 20.7386C7.83411 19.9311 7.30286 19.1037 6.79286 18.3586C6.45428 17.8486 6.13411 17.3811 5.81678 16.9334L5.49661 16.4659C5.39178 16.3186 5.28553 16.1684 5.15661 16.0211C3.77395 14.45 2.41253 13.4087 0.437695 13.2812C0.161445 14.484 0.0126953 15.725 0.0126953 17C0.0126953 18.275 0.157195 19.516 0.423529 20.7131C2.40403 20.5842 3.75978 19.5528 5.09145 17.8925C5.33511 18.241 5.59295 18.615 5.86211 19.0202C6.39336 19.822 7.00395 20.7315 7.7222 21.6339C6.29278 23.29 4.53045 24.7152 2.1547 25.2563C5.05178 30.4725 10.6164 34 17.0113 34C23.4075 34 28.9694 30.4725 31.8721 25.2549C29.4921 24.7109 27.7326 23.2886 26.3046 21.6339C26.1828 21.5064 26.0638 21.3789 25.9504 21.2302L25.6161 20.8052C24.9361 19.9339 24.3184 19.0414 23.7674 18.1914L22.9825 17C22.8777 16.8427 22.7644 16.6812 22.6567 16.5325C22.5462 16.3752 22.4385 16.2222 22.328 16.0721C20.8391 14.0321 19.353 12.6282 17.0155 12.6282C14.678 12.6282 13.1919 14.0307 11.703 16.0721L11.1718 15.2787C10.5541 14.331 9.87411 13.3237 9.10911 12.3618C10.9125 10.2892 13.2925 8.5 17.0113 8.5Z" fill="white" fill-opacity="0.5"/>
</svg>
