<svg width="14" height="14" viewBox="0 0 14 14" fill="none" xmlns="http://www.w3.org/2000/svg">
    <path shape-rendering="geometricPrecision" fill-rule="evenodd" clip-rule="evenodd" d="M13.271 2.33317C13.271 1.44722 12.5528 0.729004 11.6668 0.729004H2.33349C1.44753 0.729004 0.729327 1.44722 0.729327 2.33317V11.6665C0.729327 12.5525 1.44753 13.2707 2.33349 13.2707H11.6668C12.5528 13.2707 13.271 12.5525 13.271 11.6665V2.33317ZM7.85749 3.77381C8.02835 3.60296 8.30534 3.60296 8.47619 3.77381C8.64704 3.94466 8.64704 4.22168 8.47619 4.39253L5.8689 6.99984L8.47619 9.60716C8.64704 9.77802 8.64704 10.055 8.47619 10.2258C8.30534 10.3967 8.02835 10.3967 7.85749 10.2258L4.94082 7.30918C4.76996 7.13832 4.76996 6.86135 4.94082 6.6905L7.85749 3.77381Z" fill="#242424" fill-opacity="0.5"/>
</svg>