<svg viewBox="0 0 36 36" fill="none" xmlns="http://www.w3.org/2000/svg">
    <g clip-path="url(#clip0_1_4189)">
        <path d="M17.998 7.50002C20.0695 7.50002 21.748 5.82152 21.748 3.75005C21.748 1.6785 20.0695 0 17.998 0C15.9265 0 14.248 1.6785 14.248 3.74998C14.248 5.82152 15.9265 7.50002 17.998 7.50002Z" fill="#fff"/>
        <path d="M24.7361 27.6048L23.6471 22.0983C24.3955 21.6123 24.8396 20.7018 24.7301 19.7343L23.7386 12.6423C23.5031 10.5663 21.8576 8.99878 19.9136 8.99878H16.0841C14.1401 8.99878 12.4946 10.5648 12.2621 12.6228L11.2646 19.7538C11.1581 20.7048 11.6021 21.6123 12.3506 22.0983L11.2631 27.6048C11.2195 27.8238 11.2766 28.0533 11.4191 28.2258C11.5631 28.3998 11.7746 28.5003 11.9996 28.5003H14.5481L15.7616 35.3808C15.8246 35.7393 16.1351 36.0003 16.4996 36.0003H19.4996C19.8641 36.0003 20.1746 35.7393 20.2376 35.3808L21.4511 28.5003H23.9996C24.2231 28.5003 24.4361 28.3998 24.5801 28.2258C24.7226 28.0533 24.7796 27.8238 24.7361 27.6048V27.6048Z" fill="#fff"/>
    </g>
    <defs>
        <clipPath id="clip0_1_4189">
            <rect width="36" height="36" fill="white"/>
        </clipPath>
    </defs>
</svg>
