<svg viewBox="0 0 16 16" fill="none" xmlns="http://www.w3.org/2000/svg">
    <path d="M16 8C16 8.29622 15.6291 8.56892 15.597 8.85653C15.5643 9.1502 15.8653 9.49807 15.801 9.78099C15.7356 10.0684 15.3133 10.2517 15.2172 10.5261C15.1201 10.8037 15.3356 11.2101 15.2091 11.4724C15.0815 11.7368 14.6289 11.821 14.4734 12.0678C14.3172 12.3159 14.4368 12.7603 14.2545 12.9885C14.0717 13.2173 13.6118 13.1989 13.4051 13.4057C13.1982 13.6125 13.2166 14.0724 12.9878 14.2551C12.7595 14.4373 12.3151 14.3177 12.0671 14.4739C11.8203 14.6293 11.7361 15.0818 11.4717 15.2094C11.2094 15.3359 10.803 15.1203 10.5254 15.2175C10.2511 15.3135 10.0679 15.7357 9.78057 15.801C9.4977 15.8653 9.14995 15.5643 8.85637 15.597C8.56875 15.6291 8.29614 16 8 16C7.70378 16 7.43108 15.6291 7.14347 15.597C6.8498 15.5643 6.50193 15.8653 6.21901 15.801C5.93161 15.7356 5.74834 15.3133 5.47391 15.2172C5.19631 15.1201 4.78986 15.3356 4.52758 15.2091C4.26316 15.0815 4.17901 14.6289 3.93218 14.4734C3.68407 14.3172 3.23972 14.4368 3.01151 14.2545C2.78272 14.0717 2.80105 13.6118 2.59426 13.4051C2.38747 13.1982 1.92759 13.2166 1.7449 12.9878C1.56266 12.7595 1.68233 12.3151 1.52612 12.0671C1.3707 11.8203 0.918154 11.7361 0.79062 11.4717C0.664075 11.2094 0.87968 10.803 0.782547 10.5254C0.686566 10.2511 0.264254 10.0679 0.198963 9.78057C0.134661 9.4977 0.435741 9.14995 0.402993 8.85637C0.370903 8.56875 0 8.29614 0 8C0 7.70378 0.370903 7.43108 0.402993 7.14347C0.4357 6.8498 0.13466 6.50197 0.199004 6.21901C0.264378 5.93161 0.68669 5.74834 0.782711 5.47391C0.879845 5.19631 0.664322 4.78986 0.790909 4.52758C0.918484 4.26316 1.37107 4.17901 1.52654 3.93218C1.68278 3.68407 1.56316 3.23972 1.74548 3.01151C1.92821 2.78272 2.38813 2.80105 2.59488 2.59426C2.80171 2.38747 2.78338 1.92759 3.01221 1.7449C3.2405 1.56266 3.68481 1.68233 3.93283 1.52612C4.17966 1.3707 4.26382 0.918154 4.52824 0.79062C4.79056 0.664075 5.19697 0.87968 5.47457 0.782546C5.74888 0.686566 5.93206 0.264254 6.21938 0.198963C6.50226 0.13466 6.85001 0.435741 7.14359 0.402993C7.43125 0.370903 7.70386 0 8 0C8.29622 0 8.56892 0.370903 8.85653 0.402993C9.1502 0.4357 9.49803 0.13466 9.78099 0.199004C10.0684 0.264378 10.2517 0.68669 10.5261 0.782711C10.8037 0.879845 11.2101 0.664322 11.4724 0.790909C11.7368 0.918484 11.821 1.37107 12.0678 1.52654C12.3159 1.68278 12.7603 1.56316 12.9885 1.74548C13.2173 1.92821 13.1989 2.38813 13.4057 2.59488C13.6125 2.80171 14.0724 2.78338 14.2551 3.01221C14.4373 3.2405 14.3177 3.68481 14.4739 3.93283C14.6293 4.17966 15.0818 4.26382 15.2094 4.52824C15.3359 4.79056 15.1203 5.19697 15.2175 5.47457C15.3135 5.74888 15.7357 5.93206 15.801 6.21938C15.8653 6.50226 15.5643 6.85001 15.597 7.14359C15.6291 7.43121 16 7.70386 16 8Z" fill="#C6C6C6"/>
    <path d="M8.00015 14.909C4.19048 14.909 1.09106 11.8096 1.09106 7.9999C1.09106 4.19024 4.19048 1.09082 8.00015 1.09082C11.8098 1.09082 14.9092 4.19024 14.9092 7.9999C14.9092 11.8096 11.8098 14.909 8.00015 14.909ZM8.00015 1.81809C4.59145 1.81809 1.81833 4.59125 1.81833 7.9999C1.81833 11.4086 4.59145 14.1817 8.00015 14.1817C11.4088 14.1817 14.182 11.4086 14.182 7.9999C14.182 4.59125 11.4088 1.81809 8.00015 1.81809Z" fill="#383757"/>
    <path d="M7.99996 13.455C11.0124 13.455 13.4545 11.0129 13.4545 8.00045C13.4545 4.98798 11.0124 2.5459 7.99996 2.5459C4.9875 2.5459 2.54541 4.98798 2.54541 8.00045C2.54541 11.0129 4.9875 13.455 7.99996 13.455Z" fill="#CECECE"/>
    <path d="M8.00015 3.25391L9.06372 6.52724H12.5055L9.72105 8.55027L10.7846 11.8236L8.00015 9.80057L5.21569 11.8236L6.27926 8.55027L3.4948 6.52724H6.93658L8.00015 3.25391Z" fill="#383757"/>
</svg>
