<svg viewBox="0 0 20 20" fill="none" xmlns="http://www.w3.org/2000/svg">
    <g clip-path="url(#clip0_1555_40)">
        <path fill-rule="evenodd" clip-rule="evenodd" d="M14.2888 5.67097V10.9186H12.0117C11.938 10.9186 11.8656 10.9383 11.8021 10.9757C11.7385 11.0131 11.6861 11.0668 11.6503 11.1313C11.6145 11.1957 11.5966 11.2686 11.5984 11.3423C11.6002 11.416 11.6217 11.4879 11.6606 11.5505L13.5329 14.5597L15.4472 17.6364C15.4843 17.6961 15.536 17.7453 15.5975 17.7795C15.6589 17.8136 15.728 17.8315 15.7983 17.8315C15.8685 17.8315 15.9377 17.8136 15.9991 17.7795C16.0605 17.7453 16.1122 17.6961 16.1493 17.6364L18.0637 14.5596L19.9359 11.5505C19.9749 11.4879 19.9964 11.416 19.9982 11.3423C20 11.2686 19.9821 11.1957 19.9463 11.1313C19.9105 11.0668 19.8581 11.0131 19.7945 10.9757C19.731 10.9383 19.6586 10.9186 19.5849 10.9186H17.3081V4.32695C17.307 3.75481 17.0792 3.20643 16.6747 2.80188C16.2701 2.39732 15.7217 2.16956 15.1496 2.16847H10.3247C10.2386 2.16864 10.1561 2.2029 10.0953 2.26375C10.0344 2.3246 10.0002 2.40707 10 2.49312V4.86327C10.0002 4.94933 10.0344 5.0318 10.0953 5.09265C10.1561 5.15351 10.2386 5.18778 10.3247 5.18796H13.8056C13.9336 5.18826 14.0564 5.23926 14.1469 5.32982C14.2375 5.42037 14.2885 5.5431 14.2888 5.67116V5.67097ZM5.71122 14.329C5.71152 14.457 5.76253 14.5798 5.85309 14.6704C5.94365 14.7609 6.06639 14.8119 6.19446 14.8122H9.67536C9.76142 14.8124 9.84389 14.8467 9.90474 14.9075C9.96559 14.9684 9.99984 15.0509 10 15.1369V17.5069C9.99983 17.5929 9.96557 17.6754 9.90473 17.7362C9.84388 17.7971 9.76141 17.8313 9.67536 17.8315H4.85044C4.27831 17.8304 3.72992 17.6027 3.32536 17.1981C2.9208 16.7936 2.69303 16.2452 2.69192 15.673V9.08136H0.415008C0.341074 9.08236 0.268283 9.06306 0.204559 9.02555C0.140835 8.98805 0.0886212 8.93379 0.0536017 8.86866C0.0167959 8.80453 -0.00170216 8.73153 0.000123134 8.65761C0.00194843 8.58369 0.024027 8.51168 0.0639532 8.44945L1.93618 5.4403L3.85052 2.36351C3.88764 2.30384 3.93935 2.25462 4.00078 2.22049C4.06221 2.18637 4.13132 2.16846 4.20159 2.16846C4.27186 2.16846 4.34097 2.18637 4.4024 2.22049C4.46383 2.25462 4.51554 2.30384 4.55266 2.36351L6.46696 5.44027L8.33923 8.44945C8.37817 8.51205 8.39967 8.58394 8.40149 8.65765C8.40331 8.73136 8.38538 8.80422 8.34957 8.86867C8.31376 8.93312 8.26136 8.98682 8.19781 9.02421C8.13426 9.0616 8.06187 9.08132 7.98813 9.08132H5.71122V14.329Z" fill="white" fill-opacity="0.5"/>
    </g>
    <defs>
        <clipPath id="clip0_1555_40">
            <rect width="20" height="20" fill="white"/>
        </clipPath>
    </defs>
</svg>
