<svg viewBox="0 0 18 19" fill="none" xmlns="http://www.w3.org/2000/svg">
    <g filter="url(#filter0_d_579_289)">
        <path shape-rendering="geometricPrecision" fill-rule="evenodd" clip-rule="evenodd" d="M13.0202 10.8193L11.6062 10.6579C11.2667 10.6189 10.9327 10.7358 10.6933 10.9752L9.66901 11.9995C8.09361 11.1979 6.80213 9.91193 6.00051 8.33096L7.03036 7.30111C7.26973 7.06173 7.38663 6.72773 7.34767 6.38815L7.18623 4.98532C7.11943 4.42308 6.64626 4 6.07845 4H5.1154C4.48635 4 3.96308 4.52328 4.00204 5.15233C4.29708 9.90636 8.09918 13.7029 12.8476 13.998C13.4767 14.0369 13.9999 13.5136 13.9999 12.8846V11.9215C14.0055 11.3593 13.5824 10.8861 13.0202 10.8193Z" fill="white"/>
    </g>
    <defs>
        <filter id="filter0_d_579_289" x="0" y="0.5" width="18" height="18" filterUnits="userSpaceOnUse" color-interpolation-filters="sRGB">
            <feFlood flood-opacity="0" result="BackgroundImageFix"/>
            <feColorMatrix in="SourceAlpha" type="matrix" values="0 0 0 0 0 0 0 0 0 0 0 0 0 0 0 0 0 0 127 0" result="hardAlpha"/>
            <feOffset dy="0.5"/>
            <feGaussianBlur stdDeviation="2"/>
            <feComposite in2="hardAlpha" operator="out"/>
            <feColorMatrix type="matrix" values="0 0 0 0 0 0 0 0 0 0 0 0 0 0 0 0 0 0 0.2 0"/>
            <feBlend mode="normal" in2="BackgroundImageFix" result="effect1_dropShadow_579_289"/>
            <feBlend mode="normal" in="SourceGraphic" in2="effect1_dropShadow_579_289" result="shape"/>
        </filter>
    </defs>
</svg>
