<svg viewBox="0 0 10 11" fill="none" xmlns="http://www.w3.org/2000/svg">
    <path d="M9.21767 0.508443H1.66154H1.42214H1.18431H0.478104V7.20802H4.76765V9.54017L5.47386 8.78642L5.71187 8.53257L5.95109 8.27853L6.95372 7.20802H6.9838H7.31951H7.65732H9.2175V6.4858V6.2314V5.97662L9.21767 0.508443Z" fill="white"/>
    <path d="M9.21767 0.508443H1.66154H1.42214H1.18431H0.478104V7.20802H4.76765V9.54017L5.47386 8.78642L5.71187 8.53257L5.95109 8.27853L6.95372 7.20802H6.9838H7.31951H7.65732H9.2175V6.4858V6.2314V5.97662L9.21767 0.508443Z" fill="white"/>
    <path fill-rule="evenodd" clip-rule="evenodd" d="M9.69352 6.48655V7.71702H7.1813L5.47455 9.53869V9.50696L4.29025 10.7692V7.71702H0V0H1.18431L1.66102 0.00018549H9.69334V5.97736L9.69352 6.48655ZM1.66154 0.508443H9.21767L9.2175 5.97662V6.2314V6.4858V7.20802H7.65732H7.31951H6.9838H6.95372L5.95109 8.27853L5.71187 8.53257L5.47386 8.78642L4.76765 9.54017V7.20802H0.478104V0.508443H1.18431H1.42214H1.66154Z" fill="white"/>
</svg>
