<svg viewBox="0 0 22 16" fill="none" xmlns="http://www.w3.org/2000/svg">
    <g fill="white" fill-opacity="0.5">
        <path d="M11.0003 0C6.58221 0 3.00049 3.58172 3.00049 7.99986C3.00049 12.418 6.58221 15.9997 11.0003 15.9997C15.4185 15.9997 19.0002 12.418 19.0002 7.99986C19.0002 3.58172 15.4185 0 11.0003 0ZM11.0003 15.1997C7.02399 15.1997 3.80047 11.9764 3.80047 7.99986C3.80047 4.0235 7.02377 0.799986 11.0003 0.799986C14.9767 0.799986 18.2002 4.02328 18.2002 7.99986C18.2002 11.9762 14.9768 15.1997 11.0003 15.1997Z"/>
        <path d="M4.06035 13.9392C2.54017 12.4193 1.60001 10.3193 1.60001 7.99965C1.60001 5.68005 2.54013 3.58009 4.06035 2.06012L2.92895 0.928711C1.11941 2.73825 0 5.23828 0 7.99965C0 10.761 1.11941 13.261 2.92895 15.0706L4.06035 13.9392Z"/>
        <path d="M17.9399 2.06012C19.4601 3.58006 20.4003 5.68005 20.4003 7.99965C20.4003 10.3193 19.4602 12.4192 17.9399 13.9392L19.0713 15.0706C20.8809 13.2611 22.0003 10.761 22.0003 7.99965C22.0003 5.23828 20.8809 2.73832 19.0713 0.928711L17.9399 2.06012Z"/>
        <path d="M10 2.7998H12V10.3997H10V2.7998Z"/>
        <path d="M10 11.1997H12V13.1997H10V11.1997Z"/>
    </g>

    <defs>
        <filter id="red_brake" x="0" y="0" width="38.0005" height="31.9995" filterUnits="userSpaceOnUse" color-interpolation-filters="sRGB">
            <feFlood flood-opacity="0" result="BackgroundImageFix"/>
            <feColorMatrix in="SourceAlpha" type="matrix" values="0 0 0 0 0 0 0 0 0 0 0 0 0 0 0 0 0 0 127 0" result="hardAlpha"/>
            <feOffset/>
            <feGaussianBlur stdDeviation="4"/>
            <feComposite in2="hardAlpha" operator="out"/>
            <feColorMatrix type="matrix" values="0 0 0 0 1 0 0 0 0 0 0 0 0 0 0 0 0 0 0.4 0"/>
            <feBlend mode="normal" in2="BackgroundImageFix" result="effect1_dropShadow_705_121"/>
            <feBlend mode="normal" in="SourceGraphic" in2="effect1_dropShadow_705_121" result="shape"/>
        </filter>
    </defs>
</svg>