<svg viewBox="0 0 14 16" fill="none" xmlns="http://www.w3.org/2000/svg">
    <path d="M11.3216 0L10.6074 0.821428L11.9645 2.07143C12.0059 2.11281 12.0623 2.16822 12.1074 2.21429L11.8216 2.53571C11.3642 2.99311 11.6924 3.58507 11.8574 3.75L12.7145 4.60714V11.4286C12.7145 12.5714 12.2663 12.5714 12.1431 12.5714C12.0198 12.5714 11.5716 12.5714 11.5716 11.4286V6.85714C11.5716 5.39325 10.4288 4.57143 9.28592 4.57143V2.28571C9.28592 1.65565 8.80052 1.14286 8.14307 1.14286H1.28592C0.601074 1.14286 0.143066 1.62826 0.143066 2.28571V16H9.28592V5.71428C9.28592 5.71428 10.4288 5.71428 10.4288 6.85714V11.4286C10.4288 13.7143 11.8456 13.7143 12.1431 13.7143C12.4581 13.7143 13.8574 13.7143 13.8574 11.4286V3.42857C13.8574 2.28571 13.5305 2.04661 13.1431 1.67857L11.3216 0ZM1.28592 3.42857H8.14307V6.85714H1.28592V3.42857Z" fill="white"/>
</svg>