<svg viewBox="0 0 14 14" fill="none" xmlns="http://www.w3.org/2000/svg">
    <g clip-path="url(#clip0_766_58)" filter="url(#filter0_d_766_58)">
        <path d="M8.49201 0.410508C8.44851 0.1725 8.24151 0 8.00001 0C4.14002 0 1 2.69149 1 6C1 9.30799 4.13999 12 8.00001 12C8.24151 12 8.44851 11.827 8.49201 11.589L8.5435 11.3065C9.15449 7.71202 9.154 4.13951 8.54249 0.687516L8.49201 0.410508Z" fill="#859EC3"/>
        <path d="M11.6893 4.13003L12.0981 4.36603C12.3375 4.50428 12.6431 4.42204 12.7811 4.18302C12.9191 3.944 12.8375 3.63826 12.5981 3.50002L12.1707 3.25327L11.3029 2.75225L10.433 2.24999C10.1936 2.11175 9.88801 2.19398 9.75001 2.433C9.61201 2.67203 9.69358 2.97776 9.93302 3.116L10.822 3.62925L11.6893 4.13003Z" fill="#859EC3"/>
        <path d="M11.6893 7.13003L12.0981 7.36603C12.3375 7.50428 12.6431 7.42204 12.7811 7.18302C12.9191 6.944 12.8375 6.63826 12.5981 6.50002L12.1707 6.25327L11.3029 5.75225L10.433 5.24999C10.1936 5.11175 9.88801 5.19398 9.75001 5.433C9.61201 5.67203 9.69358 5.97776 9.93302 6.116L10.822 6.62925L11.6893 7.13003Z" fill="#859EC3"/>
        <path d="M11.6893 10.13L12.0981 10.366C12.3375 10.5043 12.6431 10.422 12.7811 10.183C12.9191 9.944 12.8375 9.63826 12.5981 9.50002L12.1707 9.25327L11.3029 8.75225L10.433 8.24999C10.1936 8.11175 9.88801 8.19398 9.75001 8.433C9.61201 8.67203 9.69358 8.97776 9.93302 9.116L10.822 9.62925L11.6893 10.13Z" fill="#859EC3"/>
    </g>
    <defs>
        <filter id="filter0_d_766_58" x="0" y="0" width="14" height="14" filterUnits="userSpaceOnUse" color-interpolation-filters="sRGB">
            <feFlood flood-opacity="0" result="BackgroundImageFix"/>
            <feColorMatrix in="SourceAlpha" type="matrix" values="0 0 0 0 0 0 0 0 0 0 0 0 0 0 0 0 0 0 127 0" result="hardAlpha"/>
            <feOffset dy="1"/>
            <feGaussianBlur stdDeviation="0.5"/>
            <feComposite in2="hardAlpha" operator="out"/>
            <feColorMatrix type="matrix" values="0 0 0 0 0 0 0 0 0 0 0 0 0 0 0 0 0 0 0.15 0"/>
            <feBlend mode="normal" in2="BackgroundImageFix" result="effect1_dropShadow_766_58"/>
            <feBlend mode="normal" in="SourceGraphic" in2="effect1_dropShadow_766_58" result="shape"/>
        </filter>
        <clipPath id="clip0_766_58">
            <rect width="12" height="12" fill="white" transform="translate(1)"/>
        </clipPath>
    </defs>
</svg>