<svg viewBox="0 0 14 14" fill="none" xmlns="http://www.w3.org/2000/svg">
    <g filter="url(#filter0_d_699_21)" fill="white">
        <path d="M5.67624 4.96555H8.32386C8.52854 4.96555 8.70452 4.8129 8.73331 4.61035L8.7416 4.55176H5.2583L5.26658 4.61035C5.29558 4.8129 5.47136 4.96555 5.67624 4.96555Z"/>
        <path d="M9.03758 2.48291H4.96289L5.08109 3.3105H8.91938L9.03758 2.48291Z"/>
        <path d="M4.86212 4.69136C4.86091 4.68378 4.85778 4.67671 4.85677 4.66883L4.55905 2.57178L4.24123 2.70786C3.83693 2.88121 3.55497 3.26177 3.49658 3.69375L3.51689 3.70971C3.95553 4.0544 4.40448 4.38061 4.86212 4.69136Z"/>
        <path d="M7.00012 0C5.85926 0 4.93115 0.928105 4.93115 2.06897H9.06908C9.06908 0.928105 8.14098 0 7.00012 0Z"/>
        <path d="M8.32375 5.37921H5.93555C6.94043 5.98586 7.98633 6.51462 9.069 6.96407V6.54967C9.069 6.27337 9.17679 6.01354 9.37207 5.81826L9.91578 5.27455C9.94649 5.10715 10.0143 4.94663 10.1167 4.81024L10.2671 4.61002C10.4283 4.39413 10.5173 4.12753 10.5173 3.8583C10.5173 3.35682 10.2196 2.90514 9.75859 2.70754L9.44269 2.57227L9.14325 4.66871C9.08537 5.07361 8.73299 5.37921 8.32375 5.37921Z"/>
        <path d="M10.1514 6.17353C10.0637 6.06846 9.99894 5.94764 9.9559 5.81934L9.66475 6.11049C9.54908 6.22616 9.48291 6.38608 9.48291 6.54954V7.13275C9.95257 7.31732 10.4297 7.48572 10.9126 7.64049C10.8607 7.22064 10.6907 6.82048 10.4179 6.49316L10.1514 6.17353Z"/>
        <path d="M8.80103 4.13791L8.86023 3.72412H5.14014L5.19934 4.13791H8.80103Z"/>
        <path d="M10.2031 9.47592C10.2313 9.41965 10.2665 9.36904 10.3072 9.32388C10.0302 9.22872 9.75537 9.1284 9.48291 9.02344V9.55523C9.71072 9.63655 9.87599 9.84567 9.89256 10.0971L10.2031 9.47592Z"/>
        <path d="M1.2069 2.06885H1V4.55161H1.2069C1.32105 4.55161 1.41379 4.45866 1.41379 4.34471V2.27574C1.41379 2.16179 1.32105 2.06885 1.2069 2.06885Z"/>
        <path d="M3.95998 6.01025C3.92745 6.06764 3.89108 6.12279 3.84825 6.17411L3.58215 6.49385C3.25109 6.89088 3.06885 7.39418 3.06885 7.91122C3.06885 8.25328 3.14977 8.59585 3.30262 8.90165L3.42455 9.14563C3.58356 9.20331 3.71793 9.31858 3.79672 9.47638L4.10727 10.0976C4.12384 9.84612 4.28911 9.63701 4.51692 9.55568V6.54992C4.51692 6.49547 4.50864 6.44183 4.4946 6.3895C4.31518 6.26564 4.13687 6.13916 3.95998 6.01025Z"/>
        <path d="M12.7933 7.65527C12.6792 7.65527 12.5864 7.74822 12.5864 7.86217V9.93114C12.5864 10.0451 12.6792 10.138 12.7933 10.138H13.0002V7.65527H12.7933Z"/>
        <path d="M1.82764 2.9082V3.83015L3.51716 5.1576C6.09468 7.18282 9.00588 8.62675 12.1725 9.45545V8.43501C8.91011 7.59661 5.91223 6.11752 3.26147 4.03472L1.82764 2.9082Z"/>
        <path d="M10.5735 9.66105L10.0042 10.7997C9.88911 11.0295 9.65806 11.1723 9.40106 11.1723H4.5994C4.3426 11.1723 4.11156 11.0295 3.99649 10.7997L3.42712 9.66105C3.38267 9.57235 3.29347 9.51709 3.19416 9.51709C3.11738 9.51709 3.04748 9.54891 2.99737 9.6069C2.94716 9.66479 2.92544 9.73843 2.93635 9.8142L3.21649 11.7762C3.23487 11.9039 3.3458 11.9998 3.4745 11.9998H10.526C10.6547 11.9998 10.7656 11.9039 10.7838 11.7762L11.0639 9.8142C11.0748 9.73823 11.0531 9.66458 11.0029 9.6069C10.8882 9.47426 10.6521 9.50345 10.5735 9.66105Z"/>
        <path d="M4.72399 9.9308C4.60983 9.9308 4.51709 10.0237 4.51709 10.1377V10.7441C4.54315 10.7526 4.57023 10.7584 4.59902 10.7584H9.40088C9.42947 10.7584 9.45674 10.7526 9.48281 10.7441V10.1377C9.48281 10.0237 9.39017 9.9308 9.27591 9.9308H7.20674V9.51701H9.06881V8.85944C7.62236 8.27128 6.24035 7.54512 4.93088 6.68359V9.51701H6.79295V9.9308H4.72399Z"/>
    </g>
    <defs>
        <filter id="filter0_d_699_21" x="0" y="0" width="14" height="14" filterUnits="userSpaceOnUse" color-interpolation-filters="sRGB">
            <feFlood flood-opacity="0" result="BackgroundImageFix"/>
            <feColorMatrix in="SourceAlpha" type="matrix" values="0 0 0 0 0 0 0 0 0 0 0 0 0 0 0 0 0 0 127 0" result="hardAlpha"/>
            <feOffset dy="1"/>
            <feGaussianBlur stdDeviation="0.5"/>
            <feComposite in2="hardAlpha" operator="out"/>
            <feColorMatrix type="matrix" values="0 0 0 0 0 0 0 0 0 0 0 0 0 0 0 0 0 0 0.15 0"/>
            <feBlend mode="normal" in2="BackgroundImageFix" result="effect1_dropShadow_699_21"/>
            <feBlend mode="normal" in="SourceGraphic" in2="effect1_dropShadow_699_21" result="shape"/>
        </filter>
    </defs>
</svg>
