<svg viewBox="0 0 14 14" fill="none" xmlns="http://www.w3.org/2000/svg">
    <path d="M6.99986 7.86979C8.32299 7.86979 9.39571 6.56693 9.39571 4.95981C9.39571 3.35267 9.04346 2.0498 6.99986 2.0498C4.95618 2.0498 4.604 3.35267 4.604 4.95981C4.60404 6.56693 5.67672 7.86979 6.99986 7.86979Z" fill="white"/>
    <path d="M11.5202 12.1952C11.4758 9.39552 11.1102 8.59778 8.31218 8.09277C8.31218 8.09277 7.91825 8.59464 7.00023 8.59464C6.08221 8.59464 5.68835 8.09277 5.68835 8.09277C2.92085 8.59222 2.5329 9.37818 2.48191 12.1042C2.47777 12.3268 2.47585 12.3385 2.4751 12.3127C2.47524 12.3611 2.47546 12.4506 2.47546 12.6068C2.47546 12.6068 3.14162 13.9497 7.00027 13.9497C10.8589 13.9497 11.5251 12.6068 11.5251 12.6068C11.5251 12.5065 11.5252 12.4367 11.5253 12.3893C11.5245 12.4052 11.523 12.3743 11.5202 12.1952Z" fill="white"/>
    <path d="M10.3248 7.35042C11.3995 7.35042 12.2706 6.29227 12.2706 4.987C12.2706 3.68168 11.9846 2.62354 10.3248 2.62354C10.0456 2.62354 9.80538 2.65357 9.59871 2.70965C9.98208 3.41638 10.0346 4.27479 10.0346 4.95999C10.0346 5.73581 9.82431 6.47651 9.43701 7.08981C9.70322 7.25605 10.0049 7.35042 10.3248 7.35042Z" fill="white"/>
    <path d="M13.996 10.8637C13.96 8.58982 13.663 7.9419 11.3905 7.53174C11.3905 7.53174 11.0706 7.93938 10.325 7.93938C10.2942 7.93938 10.2643 7.93844 10.2349 7.9371C10.7086 8.1507 11.1396 8.44809 11.4569 8.88328C12.0056 9.63563 12.1318 10.6463 12.1578 12.131C13.6867 11.8289 14 11.198 14 11.198C14 11.1158 14 11.0594 14.0002 11.0209C13.9996 11.0344 13.9983 11.0101 13.996 10.8637Z" fill="white"/>
    <path d="M3.67525 7.35039C3.99522 7.35039 4.2968 7.25602 4.56312 7.08981C4.17582 6.47651 3.96551 5.73581 3.96551 4.95999C3.96551 4.27475 4.01805 3.41634 4.40135 2.70965C4.19471 2.65357 3.95451 2.62354 3.67525 2.62354C2.01546 2.62354 1.72949 3.68168 1.72949 4.987C1.72949 6.29224 2.60066 7.35039 3.67525 7.35039Z" fill="white"/>
    <path d="M3.76524 7.93662C3.73589 7.93795 3.70599 7.93889 3.67509 7.93889C2.92948 7.93889 2.60958 7.53125 2.60958 7.53125C0.337138 7.94141 0.0401363 8.58929 0.00414706 10.8632C0.00180307 11.0097 0.000613043 11.0339 0 11.0203C7.21228e-05 11.0589 0.000144246 11.1153 0.000144246 11.1975C0.000144246 11.1975 0.313518 11.8284 1.8423 12.1305C1.86845 10.6458 1.99452 9.63514 2.54326 8.88276C2.8606 8.44764 3.2915 8.15021 3.76524 7.93662Z" fill="white"/>
</svg>