<svg viewBox="0 0 17 24" fill="none" xmlns="http://www.w3.org/2000/svg">
    <path d="M16.0011 5.855C16.0011 3.07883 13.9569 0 12.0893 0C10.2218 0 8.15234 3.07892 8.15234 5.855C8.15234 8.07591 9.26282 9.41348 10.8274 9.89302L10.6255 22.5116C10.6255 23.3192 11.2564 23.9753 12.0641 23.9753C12.8718 23.9753 13.5279 23.3192 13.5027 22.5116L13.3008 9.89302C14.8906 9.43867 16.0011 8.07577 16.0011 5.855Z" fill="#FFD58C"/>
    <path d="M5.62782 0.630751C5.27451 0.630751 4.99689 0.908368 4.99689 1.26168V6.51099C4.99689 6.66238 4.87067 6.78861 4.71927 6.78861H4.03783C3.88643 6.78861 3.76021 6.66238 3.76021 6.51099L3.76039 1.23644C3.73504 0.908305 3.45742 0.630706 3.12946 0.630706C2.77615 0.630706 2.49853 0.908323 2.49853 1.26163V6.51094C2.49853 6.66234 2.37231 6.78856 2.22092 6.78856H1.53947C1.38808 6.78856 1.26185 6.66234 1.26185 6.51094V1.2364C1.26185 0.883086 0.984237 0.605469 0.630927 0.605469C0.277617 0.605469 0 0.883086 0 1.2364V7.62138C0 8.70648 0.832823 9.58987 1.86759 9.69091L1.66567 22.4861C1.66567 23.2938 2.2966 23.9499 3.10427 23.9499C3.91195 23.9499 4.56802 23.2937 4.54288 22.4861L4.36596 9.71614C5.42591 9.61527 6.23354 8.70675 6.23354 7.64661V1.2364C6.23354 0.90826 5.95593 0.630661 5.62781 0.630661L5.62782 0.630751Z" fill="#FFD58C"/>
</svg>
